<?xml version="1.0" encoding="UTF-8" standalone="no"?>
<!-- Created with Inkscape (http://www.inkscape.org/) -->

<svg
   xmlns:dc="http://purl.org/dc/elements/1.1/"
   xmlns:cc="http://creativecommons.org/ns#"
   xmlns:rdf="http://www.w3.org/1999/02/22-rdf-syntax-ns#"
   xmlns:svg="http://www.w3.org/2000/svg"
   xmlns="http://www.w3.org/2000/svg"
   xmlns:sodipodi="http://sodipodi.sourceforge.net/DTD/sodipodi-0.dtd"
   xmlns:inkscape="http://www.inkscape.org/namespaces/inkscape"
   id="svg4005"
   version="1.1"
   inkscape:version="0.91 r13725"
   xml:space="preserve"
   width="765"
   height="990"
   viewBox="0 0 765 990"
   sodipodi:docname="A16_Maps_20161122.svg"><metadata
     id="metadata4011"><rdf:RDF><cc:Work
         rdf:about=""><dc:format>image/svg+xml</dc:format><dc:type
           rdf:resource="http://purl.org/dc/dcmitype/StillImage" /><dc:title></dc:title></cc:Work></rdf:RDF></metadata><defs
     id="defs4009"><clipPath
       clipPathUnits="userSpaceOnUse"
       id="clipPath4021"><path
         d="M 0,792 612,792 612,0 0,0 0,792 Z"
         id="path4023"
         inkscape:connector-curvature="0" /></clipPath><clipPath
       clipPathUnits="userSpaceOnUse"
       id="clipPath4031"><path
         d="m 36,701.804 261,0 0,47.192 -261,0 0,-47.192 z"
         id="path4033"
         inkscape:connector-curvature="0" /></clipPath><clipPath
       clipPathUnits="userSpaceOnUse"
       id="clipPath4111"><path
         d="M 0,792 612,792 612,0 0,0 0,792 Z"
         id="path4113"
         inkscape:connector-curvature="0" /></clipPath><clipPath
       clipPathUnits="userSpaceOnUse"
       id="clipPath4131"><path
         d="m 175.5,54 260.999,0 0,572.399 -260.999,0 0,-572.399 z"
         id="path4133"
         inkscape:connector-curvature="0" /></clipPath><clipPath
       clipPathUnits="userSpaceOnUse"
       id="clipPath4329"><path
         d="m 175.5,54 260.999,0 0,572.4 -260.999,0 0,-572.4 z"
         id="path4331"
         inkscape:connector-curvature="0" /></clipPath></defs><sodipodi:namedview
     pagecolor="#ffffff"
     bordercolor="#666666"
     borderopacity="1"
     objecttolerance="10"
     gridtolerance="10"
     guidetolerance="10"
     inkscape:pageopacity="0"
     inkscape:pageshadow="2"
     inkscape:window-width="640"
     inkscape:window-height="480"
     id="namedview4007"
     showgrid="false"
     inkscape:zoom="0.23838384"
     inkscape:cx="382.5"
     inkscape:cy="495"
     inkscape:window-x="20"
     inkscape:window-y="42"
     inkscape:window-maximized="0"
     inkscape:current-layer="g4013" /><g
     id="g4013"
     inkscape:groupmode="layer"
     inkscape:label="A16_Maps_20161122"
     transform="matrix(1.25,0,0,-1.25,0,990)"><g
       id="g4015"><g
         id="g4017"><g
           id="g4019"
           clip-path="url(#clipPath4021)"><path
             d="m 0,666 612,0 0,126 -612,0 0,-126 z"
             style="fill:#f0efef;fill-opacity:1;fill-rule:nonzero;stroke:none"
             id="path4025"
             inkscape:connector-curvature="0" /><g
             id="g4027"><g
               id="g4029"
               clip-path="url(#clipPath4031)"><g
                 id="g4035"
                 transform="translate(106.1,735.9109)"><path
                   d="m 0,0 6.304,0 6.208,-11.27 c 1.241,-2.287 2.678,-5.358 3.005,-6.893 l 0.229,0 c -0.131,1.176 -0.229,3.92 -0.229,6.403 l 0,11.76 4.508,0 0,-23.26 -6.468,0 -7.089,13.296 c -0.784,1.437 -1.601,3.398 -1.993,4.868 l -0.196,0 c 0.099,-1.601 0.229,-3.431 0.229,-5.39 l 0,-12.774 L 0,-23.26 0,0 Z"
                   style="fill:#404041;fill-opacity:1;fill-rule:nonzero;stroke:none"
                   id="path4037"
                   inkscape:connector-curvature="0" /></g><g
                 id="g4039"
                 transform="translate(141.7729,724.3789)"><path
                   d="M 0,0 C 0,3.137 -1.405,4.933 -3.725,4.868 -6.599,4.933 -7.678,2.516 -7.84,0 L 0,0 Z m 3.985,-7.187 c -1.045,-2.581 -3.135,-4.932 -7.578,-4.932 -5.489,0 -8.952,3.854 -8.952,10.225 0,5.978 3.235,10.094 8.984,10.094 5.521,0 8.265,-4.41 8.265,-9.572 l 0,-1.763 -12.544,0 c 0,-2.32 0.784,-5.652 4.148,-5.652 2.124,0 3.365,1.699 3.692,2.907 l 3.985,-1.307 z"
                   style="fill:#404041;fill-opacity:1;fill-rule:nonzero;stroke:none"
                   id="path4041"
                   inkscape:connector-curvature="0" /></g><g
                 id="g4043"
                 transform="translate(165.0643,712.651)"><path
                   d="m 0,0 -4.704,0 0,2.974 c -1.568,-1.569 -3.692,-3.365 -6.533,-3.365 -3.594,0 -4.541,2.874 -4.541,5.749 l 0,14.178 4.704,0 0,-13.165 c 0,-1.83 0.914,-2.778 2.221,-2.778 1.503,0 2.45,0.916 4.149,2.516 l 0,13.427 4.704,0 L 0,0 Z"
                   style="fill:#404041;fill-opacity:1;fill-rule:nonzero;stroke:none"
                   id="path4045"
                   inkscape:connector-curvature="0" /></g><g
                 id="g4047"
                 transform="translate(169.1152,732.1868)"><path
                   d="m 0,0 4.704,0 0,-3.071 0.065,0 c 1.209,1.601 3.169,3.463 5.522,3.463 0.293,0 0.587,-0.033 0.881,-0.065 l 0,-4.312 c -0.62,0.065 -1.143,0.131 -1.666,0.131 -2.319,0 -3.724,-1.503 -4.802,-2.68 l 0,-13.002 -4.704,0 L 0,0 Z"
                   style="fill:#404041;fill-opacity:1;fill-rule:nonzero;stroke:none"
                   id="path4049"
                   inkscape:connector-curvature="0" /></g><g
                 id="g4051"
                 transform="translate(189.7933,715.5916)"><path
                   d="m 0,0 c 2.483,0 4.051,1.895 4.051,6.828 0,4.802 -1.568,6.827 -4.051,6.827 -2.482,0 -4.05,-2.025 -4.05,-6.827 C -4.05,1.895 -2.482,0 0,0 m 0,16.987 c 5.717,0 8.951,-4.116 8.951,-10.094 0,-6.37 -3.724,-10.225 -8.951,-10.225 -5.488,0 -8.951,3.855 -8.951,10.225 0,5.978 3.496,10.094 8.951,10.094"
                   style="fill:#404041;fill-opacity:1;fill-rule:nonzero;stroke:none"
                   id="path4053"
                   inkscape:connector-curvature="0" /></g><g
                 id="g4055"
                 transform="translate(201.8475,735.9109)"><path
                   d="m 0,0 6.306,0 6.205,-11.27 c 1.242,-2.287 2.679,-5.358 3.006,-6.893 l 0.229,0 c -0.13,1.176 -0.229,3.92 -0.229,6.403 l 0,11.76 4.508,0 0,-23.26 -6.468,0 -7.088,13.296 c -0.785,1.437 -1.601,3.398 -1.994,4.868 l -0.195,0 c 0.098,-1.601 0.228,-3.431 0.228,-5.39 l 0,-12.774 L 0,-23.26 0,0 Z"
                   style="fill:#404041;fill-opacity:1;fill-rule:nonzero;stroke:none"
                   id="path4057"
                   inkscape:connector-curvature="0" /></g><g
                 id="g4059"
                 transform="translate(237.5204,724.3789)"><path
                   d="M 0,0 C 0,3.137 -1.405,4.933 -3.724,4.868 -6.599,4.933 -7.677,2.516 -7.84,0 L 0,0 Z m 3.985,-7.187 c -1.045,-2.581 -3.136,-4.932 -7.579,-4.932 -5.488,0 -8.951,3.854 -8.951,10.225 0,5.978 3.235,10.094 8.984,10.094 5.52,0 8.264,-4.41 8.264,-9.572 l 0,-1.763 -12.543,0 c 0,-2.32 0.784,-5.652 4.148,-5.652 2.124,0 3.365,1.699 3.692,2.907 l 3.985,-1.307 z"
                   style="fill:#404041;fill-opacity:1;fill-rule:nonzero;stroke:none"
                   id="path4061"
                   inkscape:connector-curvature="0" /></g><g
                 id="g4063"
                 transform="translate(249.0112,723.0732)"><path
                   d="m 0,0 -5.455,9.114 5.324,0 2.549,-4.737 C 2.744,3.757 3.136,3.005 3.398,2.384 l 0.131,0 c 0.293,0.687 0.554,1.274 0.816,1.732 l 2.777,4.998 4.9,0 -5.489,-9.05 6.012,-10.486 -5.456,0 -3.202,6.011 c -0.261,0.49 -0.555,1.143 -0.685,1.535 l -0.164,0 C 2.809,-3.3 2.515,-3.888 2.254,-4.411 l -3.365,-6.011 -5.031,0 L 0,0 Z"
                   style="fill:#404041;fill-opacity:1;fill-rule:nonzero;stroke:none"
                   id="path4065"
                   inkscape:connector-curvature="0" /></g><g
                 id="g4067"
                 transform="translate(279.1301,712.651)"><path
                   d="m 0,0 -4.704,0 0,2.974 c -1.568,-1.569 -3.692,-3.365 -6.533,-3.365 -3.593,0 -4.542,2.874 -4.542,5.749 l 0,14.178 4.705,0 0,-13.165 c 0,-1.83 0.915,-2.778 2.221,-2.778 1.503,0 2.45,0.916 4.149,2.516 l 0,13.427 4.704,0 L 0,0 Z"
                   style="fill:#404041;fill-opacity:1;fill-rule:nonzero;stroke:none"
                   id="path4069"
                   inkscape:connector-curvature="0" /></g><g
                 id="g4071"
                 transform="translate(292.7201,726.8296)"><path
                   d="m 0,0 c -0.261,0.947 -0.751,2.613 -3.398,2.613 -1.274,0 -2.547,-0.654 -2.547,-2.189 0,-1.437 1.208,-1.829 2.058,-2.123 l 3.756,-1.241 c 2.646,-0.85 4.411,-2.418 4.411,-5.325 0,-5.064 -4.084,-6.305 -8.33,-6.305 -5.032,0 -6.534,3.267 -6.927,4.966 l 4.018,1.24 c 0.524,-1.796 1.438,-2.874 3.595,-2.874 2.155,0 2.939,1.47 2.939,2.451 0.033,1.436 -1.045,1.894 -2.156,2.221 l -3.005,0.947 c -2.777,0.849 -4.868,2.45 -4.868,5.423 0,4.247 3.398,5.945 7.056,5.945 4.443,0 6.599,-2.189 7.319,-4.541 L 0,0 Z"
                   style="fill:#404041;fill-opacity:1;fill-rule:nonzero;stroke:none"
                   id="path4073"
                   inkscape:connector-curvature="0" /></g><g
                 id="g4075"
                 transform="translate(78.7064,712.0362)"><path
                   d="m 0,0 1.029,11.59 c 0.126,1.699 0.27,3.435 0.829,5.064 0.724,2.122 1.66,2.48 2.513,0.657 0.661,-1.414 1.026,-2.623 1.45,-3.82 0.397,-1.119 0.797,-1.229 1.738,-0.964 0.816,0.23 1.241,0.496 2.448,0.496 1.242,0 1.984,-0.581 3.095,-0.581 l 3.518,0 c -0.273,1.486 -0.769,3.076 -1.444,4.712 C 11.723,25.521 5.417,30.668 -1.85,32.996 L 0,0 Z"
                   style="fill:#2c8bd6;fill-opacity:1;fill-rule:nonzero;stroke:none"
                   id="path4077"
                   inkscape:connector-curvature="0" /></g><g
                 id="g4079"
                 transform="translate(41.1434,724.478)"><path
                   d="m 0,0 c 0.799,0.008 3.236,0.073 4.398,-0.424 2.253,-0.967 3.286,2.693 3.513,4.77 l 0.879,7.046 1.373,-13.45 C 10.91,-0.363 11.579,0.005 14.179,0 l 7.98,0 c 1.98,0 2.779,0.04 3.755,0.552 0.978,0.511 1.504,0.541 2.218,0.417 0.79,-0.138 1.142,-1.13 2.013,-0.69 l 1.241,0.483 c 0.984,0.313 1.341,0.902 1.442,1.704 l 2.524,18.203 C 22.779,24.518 7.445,20.01 -0.977,9.153 -3.7,5.641 -4.904,2.561 -5.143,0 L 0,0 Z"
                   style="fill:#2c8bd6;fill-opacity:1;fill-rule:nonzero;stroke:none"
                   id="path4081"
                   inkscape:connector-curvature="0" /></g><g
                 id="g4083"
                 transform="translate(76.2914,736.1588)"><path
                   d="m 0,0 c -0.04,-0.914 -0.958,-9.139 -1.253,-11.165 -0.299,-2.06 -1.223,-2.744 -2.174,-3.112 -0.295,-0.116 -0.727,-0.316 -1.473,-0.518 -1.201,-0.326 -1.536,0.601 -2.458,0.646 -1.41,0.068 -2.206,-0.821 -5.631,-0.821 l -8.001,0 c -1.777,0 -2.759,-0.712 -3.436,-2.478 l -1.075,-2.612 -1.073,9.265 -0.271,-0.79 c -0.656,-1.908 -2.232,-4.602 -4.908,-3.824 -1.159,0.336 -2.057,0.439 -3.395,0.439 l -4.889,0 c 0.648,-2.39 2.253,-4.012 3.939,-4.725 4.327,-1.829 8.685,0.433 15.439,-3.901 7.244,-4.649 11.589,-3.321 15.396,-2.558 -0.698,-0.749 -0.729,-1.8 -0.544,-2.548 0.479,-1.92 3.373,-4.519 7.33,-5.244 L 0,0 Z"
                   style="fill:#2c8bd6;fill-opacity:1;fill-rule:nonzero;stroke:none"
                   id="path4085"
                   inkscape:connector-curvature="0" /></g><g
                 id="g4087"
                 transform="translate(91.6755,716.0109)"><path
                   d="m 0,0 c 2.471,0.862 3.642,2.735 3.854,5.178 l -3.721,0 c -1.111,0 -1.854,0.579 -3.096,0.579 -1.207,0 -1.63,-0.267 -2.447,-0.495 -2.402,-0.665 -2.572,1.169 -3.19,3.113 -0.374,1.173 -0.916,3.143 -1.336,3.117 -0.418,-0.026 -0.777,-1.29 -0.931,-3.003 -0.523,-5.806 -1.969,-17.417 -2.594,-22.349 2.331,-0.347 5.003,-0.036 7.758,1.431 C 2.995,-7.791 4.636,-1.538 0,0"
                   style="fill:#2c8bd6;fill-opacity:1;fill-rule:nonzero;stroke:none"
                   id="path4089"
                   inkscape:connector-curvature="0" /></g></g></g><path
             d="M 0,0 612,0 612,36 0,36 0,0 Z"
             style="fill:#f0efef;fill-opacity:1;fill-rule:nonzero;stroke:none"
             id="path4091"
             inkscape:connector-curvature="0" /></g></g></g><text
       transform="matrix(1,0,0,-1,89.9624,20.115)"
       style="font-variant:normal;font-weight:bold;font-stretch:normal;font-size:10px;font-family:'Vectora LT Std Light';-inkscape-font-specification:VectoraLTStd-Bold;writing-mode:lr-tb;fill:#393536;fill-opacity:1;fill-rule:nonzero;stroke:none"
       id="text4093"><tspan
         x="0 7.5900002 13.51 19.620001 23.690001 29.809999 37.400002 43.32 49.060001 55.169998 60.360001 62.949001 67.959 73.878998 79.249001 85.549004 91.848999 97.969002 100.749 106.869 112.799 115.579 121.499 126.319 128.909 131.869 134.82899 141.129 146.24899 148.839 151.799 159.799 165.71899 171.63901 177.55901"
         y="0"
         sodipodi:role="line"
         id="tspan4095">NeuroNexus Technologies, Inc. ©2016</tspan></text>
<text
       transform="matrix(1,0,0,-1,278.6406,20.115)"
       style="font-variant:normal;font-weight:300;font-stretch:normal;font-size:10px;font-family:'Vectora LT Std Light';-inkscape-font-specification:VectoraLTStd-Light;writing-mode:lr-tb;fill:#393536;fill-opacity:1;fill-rule:nonzero;stroke:none"
       id="text4097"><tspan
         x="0 2.22 7.4200001 12.62 17.82 23.02 25.620001 30.438999 35.629002 37.848999 41.368999 46.368999 51.738998 53.959 59.519001 62.118999 68.418999 73.978996 79.539001 83.058998 86.209 88.438004 91.038002 96.227997 101.788 104.008 107.158 112.528 115.128 120.328 125.528 130.728 132.95799 135.188 141.668 147.228 152.78799 155.01801 161.498 165.01801 170.578 176.138 178.548 180.778 183.37801 191.70799 193.92799 198.92799 204.48801 206.70799 211.89799 217.088 222.64799 225.248 231.728 236.918"
         y="0"
         sodipodi:role="line"
         id="tspan4099">| 655 Fairfeld Court, Suite 100, Ann Arbor, Michigan USA</tspan></text>
<text
       transform="matrix(1,0,0,-1,130.6476,8.115)"
       style="font-variant:normal;font-weight:300;font-stretch:normal;font-size:10px;font-family:'Vectora LT Std Light';-inkscape-font-specification:VectoraLTStd-Light;writing-mode:lr-tb;fill:#393536;fill-opacity:1;fill-rule:nonzero;stroke:none"
       id="text4101"><tspan
         x="0 4.25 9.6199999 11.84 17.209999 22.77 28.33 33.889999 39.450001 44.82 47.049999 49.650002 55.650002 60.849998 63.450001 68.650002 73.849998 79.050003 81.650002 86.849998 92.050003 97.25 99.849998 105.05 110.25 115.45 120.65 125.85 128.07001 133.27 138.088 143.278 148.088 150.31799 152.918 158.918 164.118 166.718 171.918 177.118 182.31799 184.918 190.118 195.31799 200.51801 203.118 208.31799 213.51801 218.718 223.918 229.118 231.338 236.53799 241.168 246.728 252.28799 257.84799 263.40799 266.92801 270.078 278.078 283.638 289.008 294.56799 298.08801 303.64801 309.20801 314.578 319.388 324.948 329.02499 331.625 336.625 342.185"
         y="0"
         sodipodi:role="line"
         id="tspan4103">Telephone: +1.734.913.8858 | Fax: +1.734.786.0069 | support@neuronexus.com</tspan></text>
<g
       id="g4105"><g
         id="g4107"><g
           id="g4109"
           clip-path="url(#clipPath4111)"><text
             transform="matrix(1,0,0,-1,488.9169,732.8071)"
             style="font-variant:normal;font-weight:normal;font-stretch:normal;font-size:18px;font-family:'Vectora LT Std Roman';-inkscape-font-specification:VectoraLTStd-Roman;writing-mode:lr-tb;fill:#386885;fill-opacity:1;fill-rule:nonzero;stroke:none"
             id="text4115"><tspan
               x="0 10.008 14.364 23.724001 33.731998 38.736 54.396 66.402 77.075996"
               y="0"
               sodipodi:role="line"
               id="tspan4117">SITE MAPS</tspan></text>
<text
             transform="matrix(1,0,0,-1,505.9567,718.407)"
             style="font-variant:normal;font-weight:normal;font-stretch:normal;font-size:12px;font-family:'Vectora LT Std Roman';-inkscape-font-specification:VectoraLTStd-Roman;writing-mode:lr-tb;fill:#386885;fill-opacity:1;fill-rule:nonzero;stroke:none"
             id="text4119"><tspan
               x="0 8.0039997 14.676 21.348 24.684 31.584 38.028 44.256001 50.484001 56.928001 63.372002"
               y="0"
               sodipodi:role="line"
               id="tspan4121">A16 Package</tspan></text>
<text
             transform="matrix(1,0,0,-1,420.3851,704.0071)"
             style="font-variant:normal;font-weight:normal;font-stretch:normal;font-size:12px;font-family:'Vectora LT Std Roman';-inkscape-font-specification:VectoraLTStd-Roman;writing-mode:lr-tb;fill:#386885;fill-opacity:1;fill-rule:nonzero;stroke:none"
             id="text4123"><tspan
               x="0 8.0159998 14.904 21.792 28.236 32.459999 39.132 46.02 49.355999 57.804001 64.692001 70.692001 77.363998 88.019997 94.907997 101.58 106.02 109.356 116.028 122.7 125.5908 128.9268 135.5988 142.2708 148.94279"
               y="0"
               sodipodi:role="line"
               id="tspan4125">Updated November 22, 2016</tspan></text>
</g></g></g><g
       id="g4127"><g
         id="g4129"
         clip-path="url(#clipPath4131)"><g
           id="g4135"
           transform="matrix(0,-10.021495,-9.7757387,0,207.035,251.56551)"><g
             id="g4137"
             transform="translate(-592.0508,-39.408)"><path
               d="m 0,0 0,58.569 101.646,0 0.944,-0.03 0.945,-0.091 0.945,-0.152 0.944,-0.212 0.945,-0.269 0.944,-0.326 0.945,-0.38 0.945,-0.433 0.944,-0.483 0.945,-0.528 0.944,-0.572 0.945,-0.611 0.945,-0.649 0.945,-0.679 0.945,-0.707 0.944,-0.731 0.945,-0.75 0.945,-0.763 0.945,-0.774 1.889,-1.557 0.945,-0.773 0.944,-0.764 0.945,-0.75 0.945,-0.73 0.944,-0.707 0.945,-0.679 0.944,-0.649 0.945,-0.611 0.944,-0.572 0.945,-0.529 0.945,-0.482 0.944,-0.433 0.945,-0.381 0.944,-0.325 0.945,-0.27 0.945,-0.211 0.944,-0.152 0.945,-0.092 0.945,-0.03 432.228,-6.222 33.063,0 0.176,-0.033 6.866,-3.192 -6.866,-3.19 -0.176,-0.035 -33.063,0 -432.228,-6.221 -0.945,-0.031 -0.945,-0.091 -0.944,-0.153 -0.945,-0.211 -0.945,-0.269 -0.944,-0.326 -0.945,-0.381 -0.944,-0.433 -0.945,-0.482 -0.945,-0.528 -0.944,-0.573 -0.945,-0.611 -0.944,-0.648 -0.945,-0.68 -0.944,-0.707 -0.945,-0.73 -0.945,-0.75 -0.944,-0.764 -0.945,-0.774 L 119.595,9.141 118.65,8.367 117.705,7.604 116.76,6.854 115.816,6.124 114.871,5.416 113.926,4.738 112.981,4.089 112.036,3.478 111.092,2.905 110.147,2.378 109.203,1.895 108.258,1.462 107.313,1.081 106.369,0.755 105.424,0.486 104.48,0.275 103.535,0.122 102.59,0.031 101.646,0 0,0 Z"
               style="fill:#393536;fill-opacity:1;fill-rule:nonzero;stroke:none"
               id="path4139"
               inkscape:connector-curvature="0" /></g></g><g
           id="g4141"
           transform="matrix(0,-10.021495,-9.7757387,0,207.035,251.56551)"><g
             id="g4143"
             transform="translate(-516.4778,15.8556)"><path
               d="m 0,0 9.447,0 0,-10.675 16.626,0 0.944,-0.014 0.945,-0.041 0.945,-0.071 0.944,-0.096 0.945,-0.124 0.945,-0.15 0.944,-0.175 0.945,-0.198 0.945,-0.222 0.944,-0.242 0.945,-0.263 0.945,-0.28 0.944,-0.298 0.945,-0.311 0.945,-0.325 0.944,-0.335 0.945,-0.344 0.945,-0.351 0.944,-0.355 1.89,-0.714 0.944,-0.355 0.945,-0.351 0.945,-0.344 0.944,-0.335 0.945,-0.325 0.945,-0.311 0.944,-0.297 0.945,-0.282 0.945,-0.261 0.944,-0.243 0.945,-0.222 0.945,-0.199 0.944,-0.174 0.945,-0.15 0.945,-0.124 0.944,-0.097 0.945,-0.07 0.945,-0.042 0.944,-0.013 430.767,-4.083 1.205,0 0,0.141 0.424,0 0,-0.425 -0.424,0 0,0.142 -1.205,0 -430.767,3.81 -0.944,0.012 -0.945,0.038 -0.945,0.065 -0.944,0.09 -0.945,0.114 -0.945,0.137 -0.944,0.162 -0.945,0.181 -0.945,0.205 -0.944,0.224 -0.945,0.241 -0.945,0.258 -0.944,0.275 -0.945,0.287 -0.945,0.3 -0.944,0.308 -0.945,0.317 -0.945,0.323 -0.944,0.326 -0.945,0.329 -0.945,0.33 -0.944,0.326 -0.945,0.324 -0.945,0.316 -0.944,0.31 -0.945,0.297 -0.945,0.288 -0.944,0.274 -0.945,0.259 -0.945,0.241 -0.944,0.224 -0.945,0.204 -0.945,0.182 -0.944,0.161 -0.945,0.138 -0.945,0.114 -0.944,0.089 -0.945,0.065 -0.945,0.038 -0.944,0.013 L 0,-11.809 0,0 Z"
               style="fill:#3b6487;fill-opacity:1;fill-rule:nonzero;stroke:none"
               id="path4145"
               inkscape:connector-curvature="0" /></g></g><g
           id="g4147"
           transform="matrix(0,-10.021495,-9.7757387,0,207.035,251.56551)"><g
             id="g4149"
             transform="translate(-502.3079,-26.6546)"><path
               d="m 0,0 11.903,0 0.944,0.015 0.945,0.044 0.945,0.072 0.944,0.101 0.945,0.13 0.945,0.156 0.944,0.182 0.945,0.208 0.945,0.23 0.944,0.254 0.945,0.274 0.945,0.292 0.944,0.311 0.945,0.325 0.945,0.339 0.944,0.35 0.945,0.359 0.945,0.366 0.945,0.37 0.944,0.374 0.945,0.372 0.945,0.37 0.944,0.367 0.945,0.359 0.945,0.349 0.944,0.34 0.945,0.324 0.945,0.311 0.944,0.293 0.945,0.274 0.945,0.253 0.944,0.231 0.945,0.207 0.944,0.183 0.945,0.156 0.945,0.129 0.944,0.101 0.945,0.073 0.945,0.043 0.944,0.015 430.768,4.63 4.752,0 0.946,0.426 0.229,0 0,0.141 0.425,0 0,-0.425 -0.425,0 0,0.142 -0.199,0 -0.945,-0.425 -4.783,0 L 49.689,9.088 48.745,9.072 47.8,9.024 46.855,8.946 45.911,8.837 44.966,8.699 44.021,8.53 43.077,8.334 42.132,8.111 41.188,7.863 40.243,7.59 39.298,7.296 38.354,6.981 37.409,6.647 36.464,6.297 35.52,5.933 34.575,5.557 33.63,5.17 32.686,4.776 31.741,4.377 30.796,3.977 29.852,3.576 28.907,3.178 27.962,2.784 27.017,2.397 26.073,2.021 25.128,1.657 24.183,1.307 23.239,0.973 22.294,0.658 21.349,0.363 20.405,0.091 19.46,-0.158 18.515,-0.38 l -0.944,-0.196 -0.945,-0.168 -0.945,-0.139 -0.944,-0.11 -0.945,-0.077 -0.945,-0.048 -0.944,-0.015 -2.456,0 0,-8.314 L 0,-9.447 0,0 Z"
               style="fill:#3b6487;fill-opacity:1;fill-rule:nonzero;stroke:none"
               id="path4151"
               inkscape:connector-curvature="0" /></g></g><g
           id="g4153"
           transform="matrix(0,-10.021495,-9.7757387,0,207.035,251.56551)"><g
             id="g4155"
             transform="translate(-516.4778,-24.2928)"><path
               d="m 0,0 26.073,0 0.944,0.013 0.945,0.039 0.945,0.064 0.944,0.089 0.945,0.114 0.945,0.138 0.944,0.161 0.945,0.183 0.945,0.203 0.944,0.224 0.945,0.242 0.945,0.259 0.944,0.273 0.945,0.288 0.945,0.298 0.944,0.309 0.945,0.317 0.945,0.323 0.944,0.327 0.945,0.329 0.945,0.329 0.944,0.327 0.945,0.323 0.945,0.316 0.944,0.309 0.945,0.3 0.945,0.287 0.944,0.274 0.945,0.258 0.945,0.242 0.944,0.223 0.945,0.204 0.945,0.183 0.944,0.162 0.945,0.136 0.945,0.115 0.944,0.09 0.945,0.064 0.945,0.039 0.944,0.012 430.767,3.81 1.205,0 0,0.141 0.424,0 0,-0.425 -0.424,0 0,0.142 -1.205,0 L 63.859,7.971 62.915,7.957 61.97,7.916 61.025,7.845 60.081,7.748 59.136,7.625 58.191,7.475 57.247,7.3 56.302,7.102 55.357,6.88 54.413,6.637 53.468,6.375 52.523,6.094 51.579,5.797 50.634,5.486 49.689,5.161 48.745,4.825 47.8,4.481 46.855,4.131 45.911,3.776 44.021,3.062 43.077,2.707 42.132,2.356 41.187,2.012 40.243,1.677 39.298,1.352 38.353,1.04 37.409,0.743 36.464,0.462 35.519,0.199 34.575,-0.042 33.63,-0.265 l -0.945,-0.198 -0.944,-0.175 -0.945,-0.149 -0.945,-0.124 -0.944,-0.097 -0.945,-0.07 -0.945,-0.042 -0.944,-0.014 -16.626,0 0,-10.675 -9.447,0 L 0,0 Z"
               style="fill:#3b6487;fill-opacity:1;fill-rule:nonzero;stroke:none"
               id="path4157"
               inkscape:connector-curvature="0" /></g></g><g
           id="g4159"
           transform="matrix(0,-10.021495,-9.7757387,0,207.035,251.56551)"><g
             id="g4161"
             transform="translate(-530.6477,-22.0257)"><path
               d="m 0,0 40.243,0 0.944,0.011 0.945,0.034 0.945,0.057 0.944,0.079 0.945,0.1 0.945,0.12 0.944,0.141 0.945,0.161 0.945,0.179 0.944,0.197 0.945,0.212 0.945,0.227 0.944,0.24 0.945,0.252 0.945,0.263 0.944,0.271 0.945,0.279 0.945,0.283 0.944,0.287 1.89,0.578 0.944,0.288 0.945,0.283 0.945,0.278 0.944,0.271 0.945,0.263 0.945,0.252 0.944,0.241 0.945,0.226 0.945,0.213 0.944,0.196 0.945,0.179 0.945,0.16 0.944,0.142 0.945,0.121 0.944,0.1 0.945,0.079 0.945,0.056 0.944,0.035 0.945,0.011 430.767,2.989 9.507,0 0.945,-0.425 0.199,0 0,0.141 0.426,0 0,-0.425 -0.426,0 0,0.142 -0.23,0 -0.944,0.425 -9.477,0 L 78.029,6.949 77.084,6.937 76.14,6.899 75.195,6.837 74.25,6.751 73.306,6.641 72.361,6.509 71.417,6.354 70.472,6.177 69.527,5.981 68.583,5.765 67.638,5.532 66.693,5.284 65.749,5.019 64.804,4.742 63.859,4.454 62.915,4.157 61.97,3.852 61.025,3.54 60.081,3.225 58.191,2.59 57.247,2.276 56.302,1.964 55.357,1.659 54.413,1.361 53.468,1.073 52.523,0.796 51.579,0.532 50.634,0.284 49.689,0.05 48.745,-0.165 47.8,-0.362 l -0.945,-0.177 -0.944,-0.154 -0.945,-0.133 -0.945,-0.11 -0.944,-0.086 -0.945,-0.061 -0.945,-0.038 -0.944,-0.012 -30.797,0 0,-12.943 -9.446,0 L 0,0 Z"
               style="fill:#3b6487;fill-opacity:1;fill-rule:nonzero;stroke:none"
               id="path4163"
               inkscape:connector-curvature="0" /></g></g><g
           id="g4165"
           transform="matrix(0,-10.021495,-9.7757387,0,207.035,251.56551)"><g
             id="g4167"
             transform="translate(-544.8176,-19.7586)"><path
               d="m 0,0 54.413,0 0.944,0.01 0.945,0.027 0.945,0.046 0.944,0.063 0.945,0.08 0.945,0.097 0.944,0.114 0.945,0.129 0.945,0.144 0.944,0.158 0.945,0.171 0.945,0.183 0.944,0.193 0.945,0.203 0.945,0.212 0.944,0.218 0.945,0.224 0.945,0.228 0.944,0.231 1.889,0.465 0.945,0.231 0.945,0.229 0.944,0.224 0.945,0.218 0.945,0.211 0.944,0.203 0.945,0.194 0.945,0.183 0.944,0.171 0.945,0.158 0.945,0.143 0.944,0.13 0.945,0.113 0.945,0.098 0.944,0.08 0.945,0.064 0.945,0.045 0.944,0.027 0.945,0.009 430.767,2.443 9.549,0 0.944,-0.284 3.738,0 0.944,-0.424 0.199,0 0,0.141 0.425,0 0,-0.425 -0.425,0 0,0.142 -0.229,0 -0.944,0.425 -3.728,0 -0.945,0.283 -9.528,0 L 92.199,5.512 91.254,5.502 90.31,5.472 89.365,5.421 88.42,5.35 87.476,5.259 86.531,5.15 85.586,5.023 84.642,4.877 83.697,4.716 82.752,4.539 81.808,4.348 80.863,4.143 79.918,3.925 78.974,3.698 78.029,3.461 77.084,3.216 76.14,2.965 75.195,2.709 73.306,2.19 72.361,1.929 71.417,1.669 70.472,1.414 69.527,1.163 68.583,0.917 67.638,0.681 66.693,0.454 65.749,0.236 64.804,0.031 63.859,-0.161 62.915,-0.337 61.97,-0.499 61.025,-0.644 60.081,-0.771 59.136,-0.88 l -0.945,-0.091 -0.944,-0.071 -0.945,-0.051 -0.945,-0.03 -0.944,-0.01 -44.967,0 0,-15.21 -9.446,0 L 0,0 Z"
               style="fill:#3b6487;fill-opacity:1;fill-rule:nonzero;stroke:none"
               id="path4169"
               inkscape:connector-curvature="0" /></g></g><g
           id="g4171"
           transform="matrix(0,-10.021495,-9.7757387,0,207.035,251.56551)"><g
             id="g4173"
             transform="translate(-558.988,-17.4911)"><path
               d="m 0,0 68.583,0 0.944,0.006 0.945,0.021 0.945,0.035 0.944,0.047 0.945,0.062 0.945,0.074 0.944,0.086 0.945,0.098 0.945,0.108 0.944,0.12 0.945,0.13 0.945,0.139 0.944,0.146 0.945,0.154 0.945,0.16 0.944,0.165 0.945,0.17 0.945,0.173 0.945,0.174 0.944,0.177 0.945,0.176 0.945,0.175 0.944,0.173 0.945,0.169 0.945,0.166 0.944,0.161 0.945,0.152 0.945,0.148 0.944,0.138 0.945,0.129 0.945,0.12 0.944,0.109 0.945,0.098 0.945,0.086 0.944,0.074 0.945,0.061 0.945,0.048 0.944,0.034 0.945,0.021 0.945,0.007 430.767,1.896 9.59,0 0.944,-0.283 3.737,0 0.946,-0.284 3.736,0 0.945,-0.425 0.199,0 0,0.142 0.425,0 0,-0.426 -0.425,0 0,0.142 -0.229,0 -0.945,0.425 -3.728,0 -0.944,0.283 -3.738,0 -0.944,0.284 -9.569,0 L 106.37,4.075 105.425,4.066 104.48,4.043 103.536,4.003 102.591,3.948 101.646,3.876 100.702,3.791 99.757,3.691 98.812,3.577 97.868,3.451 96.923,3.312 95.978,3.162 95.034,3.001 94.089,2.831 93.144,2.653 92.2,2.467 91.255,2.275 90.31,2.079 89.366,1.878 88.421,1.675 86.532,1.267 85.587,1.063 84.642,0.862 83.697,0.666 82.753,0.474 81.808,0.288 80.863,0.109 l -0.944,-0.17 -0.945,-0.16 -0.945,-0.151 -0.944,-0.137 -0.945,-0.127 -0.945,-0.114 -0.944,-0.101 -0.945,-0.085 -0.945,-0.07 -0.944,-0.056 -0.945,-0.04 -0.945,-0.024 -0.944,-0.008 -59.136,0 0,-17.476 L 0,-18.61 0,0 Z"
               style="fill:#3b6487;fill-opacity:1;fill-rule:nonzero;stroke:none"
               id="path4175"
               inkscape:connector-curvature="0" /></g></g><g
           id="g4177"
           transform="matrix(0,-10.021495,-9.7757387,0,207.035,251.56551)"><g
             id="g4179"
             transform="translate(-573.158,-15.224)"><path
               d="m 0,0 82.753,0 0.944,0.004 0.945,0.015 0.945,0.023 0.944,0.033 0.945,0.041 0.945,0.05 0.944,0.059 0.945,0.067 0.945,0.074 0.944,0.081 0.945,0.089 0.945,0.093 0.944,0.1 0.945,0.104 0.945,0.11 0.944,0.112 0.945,0.115 0.945,0.118 0.945,0.119 1.889,0.239 0.945,0.12 0.944,0.117 0.945,0.115 0.945,0.113 0.944,0.109 0.945,0.104 0.945,0.1 0.944,0.095 0.945,0.087 0.945,0.082 0.944,0.074 0.945,0.066 0.945,0.059 0.944,0.05 0.945,0.042 0.945,0.032 0.944,0.023 0.945,0.014 0.945,0.005 430.767,1.349 9.631,0 0.945,-0.283 3.737,0 0.944,-0.284 3.738,0 0.944,-0.283 3.737,0 0.945,-0.425 0.2,0 0,0.142 0.425,0 0,-0.426 -0.425,0 0,0.142 -0.231,0 -0.944,0.425 -3.727,0 -0.945,0.283 -3.737,0 -0.945,0.284 -3.737,0 -0.945,0.283 -9.61,0 L 120.54,2.638 119.595,2.633 118.65,2.615 117.706,2.586 116.761,2.546 115.816,2.495 114.872,2.433 113.927,2.361 112.982,2.277 112.038,2.186 111.093,2.085 110.148,1.977 109.204,1.861 108.259,1.737 107.314,1.609 106.37,1.474 105.425,1.334 104.48,1.192 103.536,1.047 102.591,0.9 101.646,0.752 99.757,0.457 98.812,0.312 97.867,0.169 96.923,0.03 95.978,-0.104 95.033,-0.233 94.089,-0.356 93.144,-0.473 92.199,-0.581 91.255,-0.682 90.31,-0.774 89.365,-0.856 88.421,-0.928 87.476,-0.99 86.531,-1.041 85.587,-1.082 84.642,-1.11 l -0.945,-0.018 -0.944,-0.006 -73.306,0 0,-19.743 -9.447,0 L 0,0 Z"
               style="fill:#3b6487;fill-opacity:1;fill-rule:nonzero;stroke:none"
               id="path4181"
               inkscape:connector-curvature="0" /></g></g><g
           id="g4183"
           transform="matrix(0,-10.021495,-9.7757387,0,207.035,251.56551)"><g
             id="g4185"
             transform="translate(-587.3279,-26.6546)"><path
               d="m 0,0 8.646,0 2.596,2.597 0,9.022 2.08,2.079 83.601,0 0.944,0.003 0.945,0.007 0.945,0.012 0.944,0.017 0.945,0.022 0.945,0.027 0.944,0.031 0.945,0.035 0.945,0.04 0.944,0.043 0.945,0.046 0.945,0.05 0.944,0.053 0.945,0.055 0.945,0.058 0.944,0.059 0.945,0.061 1.89,0.125 0.944,0.064 0.945,0.064 1.889,0.124 0.945,0.062 0.945,0.059 0.944,0.058 0.945,0.056 0.945,0.051 0.944,0.051 0.945,0.046 0.945,0.044 0.944,0.039 0.945,0.035 0.945,0.031 0.944,0.026 0.945,0.022 0.944,0.018 0.945,0.012 0.945,0.007 0.944,0.003 430.768,0.802 9.673,0 0.946,-0.283 3.735,0 0.945,-0.284 3.737,0 0.945,-0.283 3.737,0 0.945,-0.284 3.737,0 0.944,-0.424 0.2,0 0,0.141 0.425,0 0,-0.425 -0.425,0 0,0.142 -0.23,0 -0.944,0.425 -3.728,0 -0.945,0.283 -3.737,0 -0.945,0.284 -3.737,0 -0.944,0.283 -3.738,0 -0.944,0.284 -9.652,0 -430.768,-1.076 -0.944,-0.003 -0.945,-0.012 -0.945,-0.018 -0.944,-0.024 -0.945,-0.031 -0.944,-0.039 -0.945,-0.045 -0.945,-0.051 -0.944,-0.057 -0.945,-0.061 -0.945,-0.069 -0.944,-0.072 -0.945,-0.076 -0.945,-0.079 -0.944,-0.083 -0.945,-0.086 -0.945,-0.089 -0.944,-0.09 -0.945,-0.091 -2.834,-0.275 -0.945,-0.09 -0.945,-0.087 -0.944,-0.086 -0.945,-0.083 -0.945,-0.08 -0.944,-0.077 -0.945,-0.072 -0.945,-0.067 -0.944,-0.062 -0.945,-0.057 -0.945,-0.051 -0.944,-0.044 -0.945,-0.039 -0.945,-0.032 -0.944,-0.025 -0.945,-0.018 -0.945,-0.01 -0.944,-0.004 -83.131,0 -1.417,-1.415 0,-9.022 -2.928,-2.928 0,-8.646 L 0,-9.447 0,0 Z"
               style="fill:#3b6487;fill-opacity:1;fill-rule:nonzero;stroke:none"
               id="path4187"
               inkscape:connector-curvature="0" /></g></g><g
           id="g4189"
           transform="matrix(0,-10.021495,-9.7757387,0,207.035,251.56551)"><g
             id="g4191"
             transform="translate(-587.3279,-12.4847)"><path
               d="m 0,0 8.646,0 1.794,1.795 87.427,0 0.945,0.001 2.834,0.006 0.945,0.003 1.889,0.007 2.834,0.014 1.889,0.011 5.669,0.04 0.944,0.008 0.945,0.007 0.945,0.007 4.723,0.033 1.889,0.011 2.834,0.015 1.89,0.007 0.944,0.003 2.834,0.006 0.945,0.001 0.944,0 430.768,0.254 9.715,0 0.945,-0.283 3.737,0 0.944,-0.283 3.737,0 0.944,-0.284 3.737,0 0.945,-0.283 3.737,0 0.945,-0.284 3.737,0 0.945,-0.424 0.199,0 0,0.141 0.425,0 0,-0.425 -0.425,0 0,0.142 -0.229,0 -0.946,0.425 -3.727,0 -0.945,0.283 -3.737,0 -0.944,0.284 -3.737,0 -0.945,0.283 -3.737,0 -0.944,0.284 -3.737,0 -0.945,0.283 -9.694,0 L 134.709,1.559 133.765,1.558 132.82,1.554 131.875,1.546 130.931,1.537 129.986,1.525 129.042,1.511 128.097,1.493 127.152,1.474 126.208,1.452 125.263,1.428 124.318,1.402 123.374,1.375 122.429,1.345 121.484,1.314 120.54,1.282 119.595,1.249 117.706,1.181 116.761,1.146 115.816,1.11 112.982,1.005 112.037,0.971 111.093,0.938 110.148,0.906 109.203,0.876 108.259,0.847 107.314,0.819 106.369,0.792 105.425,0.769 104.48,0.748 103.535,0.728 102.591,0.71 101.646,0.695 100.701,0.683 99.757,0.674 98.812,0.667 97.867,0.663 96.923,0.662 l -86.013,0 -1.463,-1.463 0,-8.645 L 0,-9.446 0,0 Z"
               style="fill:#3b6487;fill-opacity:1;fill-rule:nonzero;stroke:none"
               id="path4193"
               inkscape:connector-curvature="0" /></g></g><g
           id="g4195"
           transform="matrix(0,-10.021495,-9.7757387,0,207.035,251.56551)"><g
             id="g4197"
             transform="translate(-587.3279,1.6857)"><path
               d="m 0,0 9.447,0 0,-8.646 1.463,-1.462 86.013,0 0.944,-10e-4 0.945,-0.005 0.945,-0.006 0.944,-0.01 0.945,-0.013 0.945,-0.014 0.944,-0.017 0.945,-0.02 0.945,-0.022 0.944,-0.023 0.945,-0.027 0.945,-0.027 0.944,-0.029 0.945,-0.031 0.945,-0.032 0.944,-0.033 0.945,-0.034 2.834,-0.105 0.945,-0.036 0.945,-0.035 1.889,-0.067 0.945,-0.034 0.944,-0.032 0.945,-0.031 0.945,-0.029 0.944,-0.028 0.945,-0.025 0.945,-0.024 0.944,-0.023 0.945,-0.018 0.945,-0.018 0.944,-0.015 0.945,-0.012 0.944,-0.009 0.945,-0.008 0.945,-0.004 0.944,-10e-4 430.768,-0.528 9.694,0 0.945,0.283 3.737,0 0.944,0.283 3.737,0 0.945,0.283 3.737,0 0.944,0.284 3.737,0 0.945,0.284 3.727,0 0.946,0.425 0.229,0 0,0.141 0.425,0 0,-0.425 -0.425,0 0,0.142 -0.199,0 -0.945,-0.426 -3.737,0 -0.945,-0.283 -3.737,0 -0.945,-0.283 -3.737,0 -0.944,-0.283 -3.737,0 -0.944,-0.284 -3.737,0 -0.945,-0.284 -9.715,0 -430.768,0.256 -0.944,0 -0.945,10e-4 -2.834,0.005 -0.944,0.003 -1.89,0.008 -2.834,0.014 -1.889,0.011 -4.723,0.033 -0.945,0.008 -0.945,0.006 -0.944,0.008 -5.669,0.04 -1.889,0.011 -2.834,0.014 -1.889,0.008 -0.945,0.003 -2.834,0.005 -0.945,10e-4 -87.427,0 L 8.646,-9.447 0,-9.447 0,0 Z"
               style="fill:#3b6487;fill-opacity:1;fill-rule:nonzero;stroke:none"
               id="path4199"
               inkscape:connector-curvature="0" /></g></g><g
           id="g4201"
           transform="matrix(0,-10.021495,-9.7757387,0,207.035,251.56551)"><g
             id="g4203"
             transform="translate(-587.3279,15.8556)"><path
               d="m 0,0 9.447,0 0,-8.646 2.928,-2.928 0,-9.022 1.417,-1.415 83.131,0 0.944,-0.004 0.945,-0.01 0.945,-0.018 0.944,-0.024 0.945,-0.033 0.945,-0.039 0.944,-0.044 0.945,-0.05 0.945,-0.058 0.944,-0.062 0.945,-0.067 0.945,-0.072 0.944,-0.076 0.945,-0.08 0.945,-0.083 0.944,-0.086 0.945,-0.088 0.945,-0.09 2.834,-0.276 0.945,-0.09 0.944,-0.089 0.945,-0.089 0.945,-0.086 0.944,-0.084 0.945,-0.079 0.945,-0.076 0.944,-0.073 0.945,-0.067 0.945,-0.061 0.944,-0.058 0.945,-0.05 0.945,-0.046 0.944,-0.039 0.945,-0.03 0.944,-0.025 0.945,-0.018 0.945,-0.012 0.944,-0.003 430.768,-1.075 9.652,0 0.944,0.283 3.738,0 0.944,0.284 3.737,0 0.945,0.283 3.737,0 0.945,0.284 3.728,0 0.944,0.425 0.23,0 0,0.141 0.425,0 0,-0.425 -0.425,0 0,0.142 -0.2,0 -0.944,-0.426 -3.737,0 -0.945,-0.283 -3.737,0 -0.945,-0.283 -3.737,0 -0.945,-0.283 -3.735,0 -0.946,-0.283 -9.673,0 -430.768,0.801 -0.944,0.003 -0.945,0.008 -0.945,0.012 -0.944,0.017 -0.945,0.022 -0.944,0.026 -0.945,0.031 -0.945,0.036 -0.944,0.039 -0.945,0.044 -0.945,0.045 -0.944,0.05 -0.945,0.053 -0.945,0.056 -0.944,0.057 -0.945,0.06 -0.945,0.06 -1.889,0.125 -0.945,0.064 -0.944,0.064 -1.89,0.124 -0.945,0.062 -0.944,0.059 -0.945,0.058 -0.945,0.055 -0.944,0.053 -0.945,0.05 -0.945,0.046 -0.944,0.044 -0.945,0.039 -0.945,0.035 -0.944,0.032 -0.945,0.026 -0.945,0.021 -0.944,0.018 -0.945,0.012 -0.945,0.008 -0.944,0.002 -83.601,0 -2.08,2.08 0,9.021 L 8.646,-9.447 0,-9.447 0,0 Z"
               style="fill:#3b6487;fill-opacity:1;fill-rule:nonzero;stroke:none"
               id="path4205"
               inkscape:connector-curvature="0" /></g></g><g
           id="g4207"
           transform="matrix(0,-10.021495,-9.7757387,0,207.035,251.56551)"><g
             id="g4209"
             transform="translate(-573.158,15.8556)"><path
               d="m 0,0 9.447,0 0,-19.744 73.306,0 0.944,-0.005 0.945,-0.019 0.945,-0.028 0.944,-0.04 0.945,-0.052 0.945,-0.061 0.944,-0.072 0.945,-0.083 0.945,-0.091 0.944,-0.101 0.945,-0.109 0.945,-0.116 0.944,-0.123 0.945,-0.129 0.945,-0.134 0.944,-0.14 0.945,-0.142 0.945,-0.146 1.889,-0.294 0.945,-0.148 0.945,-0.148 0.944,-0.144 0.945,-0.143 0.945,-0.139 0.944,-0.135 0.945,-0.128 0.945,-0.124 0.944,-0.116 0.945,-0.109 0.945,-0.1 0.944,-0.092 0.945,-0.083 0.945,-0.072 0.944,-0.062 0.945,-0.051 0.945,-0.041 0.944,-0.028 0.945,-0.018 0.945,-0.006 430.767,-1.622 9.61,0 0.945,0.284 3.737,0 0.945,0.283 3.737,0 0.945,0.284 3.727,0 0.944,0.425 0.231,0 0,0.141 0.425,0 0,-0.425 -0.425,0 0,0.142 -0.2,0 -0.945,-0.426 -3.737,0 -0.944,-0.283 -3.738,0 -0.944,-0.283 -3.737,0 -0.945,-0.283 -9.631,0 -430.767,1.348 -0.945,0.005 -0.945,0.015 -0.944,0.023 -0.945,0.033 -0.945,0.041 -0.944,0.049 -0.945,0.059 -0.945,0.066 -0.944,0.076 -0.945,0.081 -0.945,0.087 -0.944,0.094 -0.945,0.101 -0.945,0.103 -0.944,0.11 -0.945,0.113 -0.945,0.115 -0.944,0.117 -0.945,0.12 -1.889,0.239 -0.945,0.119 -0.945,0.117 -0.945,0.115 -0.944,0.113 -0.945,0.109 -0.945,0.105 -0.944,0.099 -0.945,0.094 -0.945,0.089 -0.944,0.081 -0.945,0.074 -0.945,0.066 -0.944,0.059 -0.945,0.051 -0.945,0.041 -0.944,0.032 -0.945,0.024 -0.945,0.014 -0.944,0.005 L 0,-20.877 0,0 Z"
               style="fill:#3b6487;fill-opacity:1;fill-rule:nonzero;stroke:none"
               id="path4211"
               inkscape:connector-curvature="0" /></g></g><g
           id="g4213"
           transform="matrix(0,-10.021495,-9.7757387,0,207.035,251.56551)"><g
             id="g4215"
             transform="translate(-558.988,15.8556)"><path
               d="m 0,0 9.447,0 0,-17.477 59.136,0 0.944,-0.007 0.945,-0.025 0.945,-0.04 0.944,-0.055 0.945,-0.071 0.945,-0.085 0.944,-0.1 0.945,-0.115 0.945,-0.126 0.944,-0.138 0.945,-0.15 0.945,-0.161 0.944,-0.17 0.945,-0.178 0.945,-0.186 0.944,-0.192 0.945,-0.197 0.945,-0.201 0.945,-0.203 1.889,-0.408 0.945,-0.203 0.944,-0.201 0.945,-0.197 0.945,-0.191 0.944,-0.187 0.945,-0.177 0.945,-0.17 0.944,-0.16 0.945,-0.151 0.945,-0.139 0.944,-0.126 0.945,-0.115 0.945,-0.099 0.944,-0.086 0.945,-0.071 0.945,-0.055 0.944,-0.04 0.945,-0.024 0.945,-0.009 430.767,-2.168 9.569,0 0.944,0.283 3.738,0 0.944,0.284 3.728,0 0.945,0.425 0.229,0 0,0.141 0.425,0 0,-0.425 -0.425,0 0,0.142 -0.199,0 -0.945,-0.426 -3.736,0 -0.946,-0.283 -3.737,0 -0.944,-0.283 -9.59,0 -430.767,1.895 -0.945,0.007 -0.945,0.022 -0.944,0.033 -0.945,0.049 -0.945,0.061 -0.944,0.074 -0.945,0.085 -0.945,0.099 -0.944,0.109 -0.945,0.12 -0.945,0.129 -0.944,0.137 -0.945,0.148 -0.945,0.153 -0.944,0.161 -0.945,0.165 -0.945,0.17 -0.944,0.173 -0.945,0.175 -0.945,0.176 -0.944,0.176 -0.945,0.175 -0.945,0.173 -0.945,0.17 -0.944,0.165 -0.945,0.16 -0.945,0.153 -0.944,0.147 -0.945,0.139 -0.945,0.129 -0.944,0.121 -0.945,0.108 -0.945,0.099 -0.944,0.086 -0.945,0.073 -0.945,0.061 -0.944,0.047 -0.945,0.035 -0.945,0.021 -0.944,0.007 L 0,-18.61 0,0 Z"
               style="fill:#3b6487;fill-opacity:1;fill-rule:nonzero;stroke:none"
               id="path4217"
               inkscape:connector-curvature="0" /></g></g><g
           id="g4219"
           transform="matrix(0,-10.021495,-9.7757387,0,207.035,251.56551)"><g
             id="g4221"
             transform="translate(-544.8176,15.8556)"><path
               d="m 0,0 9.446,0 0,-15.209 44.967,0 0.944,-0.011 0.945,-0.03 0.945,-0.051 0.944,-0.071 0.945,-0.091 0.945,-0.108 0.944,-0.127 0.945,-0.146 0.945,-0.162 0.944,-0.177 0.945,-0.191 0.945,-0.205 0.944,-0.218 0.945,-0.227 0.945,-0.236 0.944,-0.246 0.945,-0.25 0.945,-0.256 0.944,-0.259 0.945,-0.261 1.889,-0.521 0.945,-0.256 0.944,-0.25 0.945,-0.246 0.945,-0.235 0.944,-0.228 0.945,-0.217 0.945,-0.205 0.944,-0.192 0.945,-0.177 0.945,-0.162 0.944,-0.144 0.945,-0.128 0.945,-0.109 0.944,-0.09 0.945,-0.072 0.945,-0.05 0.944,-0.031 0.945,-0.01 430.767,-2.716 9.528,0 0.945,0.284 3.728,0 0.944,0.425 0.229,0 0,0.141 0.425,0 0,-0.425 -0.425,0 0,0.142 -0.199,0 -0.944,-0.426 -3.738,0 -0.944,-0.283 -9.549,0 -430.767,2.443 -0.945,0.008 -0.944,0.029 -0.945,0.045 -0.945,0.063 -0.944,0.08 -0.945,0.099 -0.945,0.113 -0.944,0.129 -0.945,0.143 -0.945,0.159 -0.944,0.171 -0.945,0.183 -0.945,0.194 -0.944,0.203 -0.945,0.211 -0.945,0.217 -0.944,0.224 -0.945,0.228 -0.945,0.232 -1.889,0.465 -0.944,0.231 -0.945,0.228 -0.945,0.224 -0.944,0.218 -0.945,0.212 -0.945,0.203 -0.944,0.194 -0.945,0.182 -0.945,0.171 -0.944,0.157 -0.945,0.145 -0.945,0.13 -0.944,0.113 -0.945,0.098 -0.945,0.08 -0.944,0.063 -0.945,0.045 -0.945,0.027 -0.944,0.01 L 0,-16.343 0,0 Z"
               style="fill:#3b6487;fill-opacity:1;fill-rule:nonzero;stroke:none"
               id="path4223"
               inkscape:connector-curvature="0" /></g></g><g
           id="g4225"
           transform="matrix(0,-10.021495,-9.7757387,0,207.035,251.56551)"><g
             id="g4227"
             transform="translate(-530.6477,15.8556)"><path
               d="m 0,0 9.446,0 0,-12.942 30.797,0 0.944,-0.012 0.945,-0.038 0.945,-0.062 0.944,-0.086 0.945,-0.11 0.945,-0.133 0.944,-0.154 0.945,-0.177 0.945,-0.196 0.944,-0.216 0.945,-0.233 0.945,-0.248 0.944,-0.265 0.945,-0.276 0.945,-0.29 0.944,-0.296 0.945,-0.306 0.945,-0.312 0.944,-0.314 1.89,-0.635 0.944,-0.314 0.945,-0.312 0.945,-0.305 0.944,-0.298 0.945,-0.288 0.945,-0.277 0.944,-0.264 0.945,-0.248 0.945,-0.234 0.944,-0.216 0.945,-0.196 0.945,-0.177 0.944,-0.154 0.945,-0.133 0.944,-0.11 0.945,-0.086 0.945,-0.062 0.944,-0.038 0.945,-0.011 430.767,-3.263 9.477,0 0.944,0.425 0.23,0 0,0.141 0.426,0 0,-0.425 -0.426,0 0,0.142 -0.199,0 -0.945,-0.426 -9.507,0 -430.767,2.99 -0.945,0.011 -0.944,0.034 -0.945,0.057 -0.945,0.078 -0.944,0.1 -0.945,0.121 -0.944,0.142 -0.945,0.161 -0.945,0.178 -0.944,0.197 -0.945,0.212 -0.945,0.227 -0.944,0.24 -0.945,0.253 -0.945,0.262 -0.944,0.271 -0.945,0.279 -0.945,0.283 -0.944,0.287 -1.89,0.578 -0.944,0.287 -0.945,0.284 -0.945,0.278 -0.944,0.271 -0.945,0.263 -0.945,0.252 -0.944,0.24 -0.945,0.228 -0.945,0.212 -0.944,0.196 -0.945,0.18 -0.945,0.16 -0.944,0.14 -0.945,0.122 -0.945,0.1 -0.944,0.078 -0.945,0.057 -0.945,0.034 -0.944,0.011 L 0,-14.076 0,0 Z"
               style="fill:#3b6487;fill-opacity:1;fill-rule:nonzero;stroke:none"
               id="path4229"
               inkscape:connector-curvature="0" /></g></g><g
           id="g4231"
           transform="matrix(0,-10.021495,-9.7757387,0,207.035,251.56551)"><g
             id="g4233"
             transform="translate(-502.3079,15.8556)"><path
               d="m 0,0 9.447,0 0,-8.313 2.456,0 0.944,-0.016 0.945,-0.048 0.945,-0.077 0.944,-0.109 0.945,-0.139 0.945,-0.169 0.944,-0.195 0.945,-0.223 0.945,-0.248 0.944,-0.273 0.945,-0.294 0.945,-0.316 0.944,-0.333 0.945,-0.351 0.945,-0.365 0.944,-0.376 0.945,-0.385 0.945,-0.395 0.945,-0.397 0.944,-0.402 0.945,-0.4 0.945,-0.399 0.944,-0.394 0.945,-0.387 0.945,-0.375 0.944,-0.365 0.945,-0.35 0.945,-0.334 0.944,-0.314 0.945,-0.295 0.945,-0.273 0.944,-0.248 0.945,-0.222 0.944,-0.198 0.945,-0.168 0.945,-0.138 0.944,-0.109 0.945,-0.079 0.945,-0.047 0.944,-0.015 430.768,-4.903 4.783,0 0.945,-0.425 0.199,0 0,0.141 0.425,0 0,-0.425 -0.425,0 0,0.142 -0.229,0 -0.946,0.425 -4.752,0 -430.768,4.63 -0.944,0.014 -0.945,0.044 -0.945,0.073 -0.944,0.101 -0.945,0.129 -0.945,0.156 -0.944,0.183 -0.945,0.208 -0.944,0.23 -0.945,0.253 -0.945,0.274 -0.944,0.293 -0.945,0.311 -0.945,0.325 -0.944,0.339 -0.945,0.349 -0.945,0.359 -0.944,0.367 -0.945,0.371 -0.945,0.372 -0.944,0.373 -0.945,0.37 -0.945,0.366 -0.945,0.36 -0.944,0.349 -0.945,0.339 -0.945,0.325 -0.944,0.311 -0.945,0.293 -0.945,0.274 -0.944,0.253 -0.945,0.231 -0.945,0.208 -0.944,0.181 -0.945,0.156 -0.945,0.129 -0.944,0.102 -0.945,0.072 -0.945,0.044 -0.944,0.015 L 0,-9.447 0,0 Z"
               style="fill:#3b6487;fill-opacity:1;fill-rule:nonzero;stroke:none"
               id="path4235"
               inkscape:connector-curvature="0" /></g></g><g
           id="g4237"
           transform="matrix(0,-10.021495,-9.7757387,0,207.035,251.56551)"><path
             d="m -516.478,-26.655 9.447,0 0,-9.447 -9.447,0 0,9.447 z"
             style="fill:#f0efef;fill-opacity:1;fill-rule:nonzero;stroke:none"
             id="path4239"
             inkscape:connector-curvature="0" /></g><g
           id="g4241"
           transform="matrix(0,-10.021495,-9.7757387,0,207.035,251.56551)"><path
             d="m -530.648,-26.655 9.446,0 0,-9.447 -9.446,0 0,9.447 z"
             style="fill:#f0efef;fill-opacity:1;fill-rule:nonzero;stroke:none"
             id="path4243"
             inkscape:connector-curvature="0" /></g><g
           id="g4245"
           transform="matrix(0,-10.021495,-9.7757387,0,207.035,251.56551)"><path
             d="m -502.308,15.856 9.447,0 0,-9.447 -9.447,0 0,9.447 z"
             style="fill:#f0efef;fill-opacity:1;fill-rule:nonzero;stroke:none"
             id="path4247"
             inkscape:connector-curvature="0" /></g><g
           id="g4249"
           transform="matrix(0,-10.021495,-9.7757387,0,207.035,251.56551)"><path
             d="m -544.818,-26.655 9.446,0 0,-9.447 -9.446,0 0,9.447 z"
             style="fill:#f0efef;fill-opacity:1;fill-rule:nonzero;stroke:none"
             id="path4251"
             inkscape:connector-curvature="0" /></g><g
           id="g4253"
           transform="matrix(0,-10.021495,-9.7757387,0,207.035,251.56551)"><path
             d="m -558.988,-26.655 9.447,0 0,-9.447 -9.447,0 0,9.447 z"
             style="fill:#f0efef;fill-opacity:1;fill-rule:nonzero;stroke:none"
             id="path4255"
             inkscape:connector-curvature="0" /></g><g
           id="g4257"
           transform="matrix(0,-10.021495,-9.7757387,0,207.035,251.56551)"><path
             d="m -573.158,-26.655 9.447,0 0,-9.447 -9.447,0 0,9.447 z"
             style="fill:#f0efef;fill-opacity:1;fill-rule:nonzero;stroke:none"
             id="path4259"
             inkscape:connector-curvature="0" /></g><g
           id="g4261"
           transform="matrix(0,-10.021495,-9.7757387,0,207.035,251.56551)"><path
             d="m -587.328,-26.655 9.447,0 0,-9.447 -9.447,0 0,9.447 z"
             style="fill:#f0efef;fill-opacity:1;fill-rule:nonzero;stroke:none"
             id="path4263"
             inkscape:connector-curvature="0" /></g><g
           id="g4265"
           transform="matrix(0,-10.021495,-9.7757387,0,207.035,251.56551)"><path
             d="m -502.308,-26.655 9.447,0 0,-9.447 -9.447,0 0,9.447 z"
             style="fill:#f0efef;fill-opacity:1;fill-rule:nonzero;stroke:none"
             id="path4267"
             inkscape:connector-curvature="0" /></g><g
           id="g4269"
           transform="matrix(0,-10.021495,-9.7757387,0,207.035,251.56551)"><path
             d="m -516.478,15.856 9.447,0 0,-9.447 -9.447,0 0,9.447 z"
             style="fill:#f0efef;fill-opacity:1;fill-rule:nonzero;stroke:none"
             id="path4271"
             inkscape:connector-curvature="0" /></g><g
           id="g4273"
           transform="matrix(0,-10.021495,-9.7757387,0,207.035,251.56551)"><path
             d="m -530.648,15.856 9.446,0 0,-9.447 -9.446,0 0,9.447 z"
             style="fill:#f0efef;fill-opacity:1;fill-rule:nonzero;stroke:none"
             id="path4275"
             inkscape:connector-curvature="0" /></g><g
           id="g4277"
           transform="matrix(0,-10.021495,-9.7757387,0,207.035,251.56551)"><path
             d="m -544.818,15.856 9.446,0 0,-9.447 -9.446,0 0,9.447 z"
             style="fill:#f0efef;fill-opacity:1;fill-rule:nonzero;stroke:none"
             id="path4279"
             inkscape:connector-curvature="0" /></g><g
           id="g4281"
           transform="matrix(0,-10.021495,-9.7757387,0,207.035,251.56551)"><path
             d="m -558.988,15.856 9.447,0 0,-9.447 -9.447,0 0,9.447 z"
             style="fill:#f0efef;fill-opacity:1;fill-rule:nonzero;stroke:none"
             id="path4283"
             inkscape:connector-curvature="0" /></g><g
           id="g4285"
           transform="matrix(0,-10.021495,-9.7757387,0,207.035,251.56551)"><path
             d="m -573.158,15.856 9.447,0 0,-9.447 -9.447,0 0,9.447 z"
             style="fill:#f0efef;fill-opacity:1;fill-rule:nonzero;stroke:none"
             id="path4287"
             inkscape:connector-curvature="0" /></g><g
           id="g4289"
           transform="matrix(0,-10.021495,-9.7757387,0,207.035,251.56551)"><path
             d="m -587.328,15.856 9.447,0 0,-9.447 -9.447,0 0,9.447 z"
             style="fill:#f0efef;fill-opacity:1;fill-rule:nonzero;stroke:none"
             id="path4291"
             inkscape:connector-curvature="0" /></g><g
           id="g4293"
           transform="matrix(0,-10.021495,-9.7757387,0,207.035,251.56551)"><path
             d="m -587.328,1.686 9.447,0 0,-9.447 -9.447,0 0,9.447 z"
             style="fill:#f0efef;fill-opacity:1;fill-rule:nonzero;stroke:none"
             id="path4295"
             inkscape:connector-curvature="0" /></g><g
           id="g4297"
           transform="matrix(0,-10.021495,-9.7757387,0,207.035,251.56551)"><path
             d="m -587.328,-12.485 9.447,0 0,-9.446 -9.447,0 0,9.446 z"
             style="fill:#f0efef;fill-opacity:1;fill-rule:nonzero;stroke:none"
             id="path4299"
             inkscape:connector-curvature="0" /></g><g
           id="g4301"
           transform="matrix(0,-10.021495,-9.7757387,0,207.035,251.56551)"><g
             id="g4303"
             transform="translate(-564.3914,-1.4647)"><path
               d="M 0,0 0,-2.777 -2.324,-4.109 1.162,-5.838 0,-6.547 -0.227,-7.652 -3.911,-8.615 3.458,-9.75 0,-10.486 0,-13.037"
               style="fill:none;stroke:#f0efef;stroke-width:0.5;stroke-linecap:butt;stroke-linejoin:miter;stroke-miterlimit:10;stroke-dasharray:none;stroke-opacity:1"
               id="path4305"
               inkscape:connector-curvature="0" /></g></g><g
           id="g4307"
           transform="matrix(0,-10.021495,-9.7757387,0,207.035,251.56551)"><g
             id="g4309"
             transform="translate(-498.4963,-1.495)"><path
               d="m 0,0 1.033,-1.032 0,-2.755 L 0,-4.82 l -6.542,0 -1.033,1.033 0,0.345 6.887,0 0.344,0.343 0,1.378 -0.344,0.344 -5.166,0 -0.344,-0.344 0,-1.378 0.344,-0.343 -1.721,0 0,2.41 L -6.542,0 0,0 Z"
               style="fill:#f0efef;fill-opacity:1;fill-rule:nonzero;stroke:none"
               id="path4311"
               inkscape:connector-curvature="0" /></g></g><g
           id="g4313"
           transform="matrix(0,-10.021495,-9.7757387,0,207.035,251.56551)"><g
             id="g4315"
             transform="translate(-541.8704,0.1457)"><path
               d="m 0,0 1.587,-1.587 0,-4.232 L 0,-7.406 l -5.29,0 -1.587,1.587 0,3.703 -2.645,0 0,-5.29 -2.116,0 0,7.406 6.877,0 0,-4.761 0.529,-0.529 3.174,0 0.529,0.529 0,2.115 -0.529,0.53 -0.529,0 0,2.116 L 0,0 Z"
               style="fill:#f0efef;fill-opacity:1;fill-rule:nonzero;stroke:none"
               id="path4317"
               inkscape:connector-curvature="0" /></g></g><g
           id="g4319"
           transform="matrix(0,-10.021495,-9.7757387,0,207.035,251.56551)"><g
             id="g4321"
             transform="translate(-518.1687,-13.1742)"><path
               d="m 0,0 0,-2.116 -1.058,0 0,-3.174 11.109,3.703 0,-2.116 -10.58,-3.703 -2.645,0 0,7.406 L 0,0 Z"
               style="fill:#f0efef;fill-opacity:1;fill-rule:nonzero;stroke:none"
               id="path4323"
               inkscape:connector-curvature="0" /></g></g></g></g><g
       id="g4325"><g
         id="g4327"
         clip-path="url(#clipPath4329)"><g
           id="g4333"
           transform="matrix(0,-10.021495,-9.7757387,0,207.035,251.56551)"><g
             id="g4335"
             transform="translate(-567.1121,-0.9833)"><path
               d="M 0,0 0.411,-0.065 0.804,-0.202 1.167,-0.404 1.491,-0.666 1.763,-0.98 1.977,-1.338 2.125,-1.727 2.204,-2.135 2.21,-2.551 2.145,-2.962 2.019,-3.326 2.08,-3.348 2.443,-3.55 2.766,-3.812 3.038,-4.126 3.252,-4.483 3.4,-4.872 3.479,-5.28 3.486,-5.696 3.42,-6.107 3.284,-6.5 3.082,-6.864 2.981,-6.987 3.354,-7.116 3.718,-7.319 4.041,-7.581 4.313,-7.896 4.527,-8.253 4.676,-8.641 4.755,-9.05 4.761,-9.465 4.696,-9.876 4.56,-10.27 4.357,-10.633 4.095,-10.956 3.781,-11.229 3.424,-11.442 3.035,-11.591 2.626,-11.669 2.297,-11.675 2.3,-11.693 l -0.79,0.03 -1.073,0.231 -1.017,0.414 -0.93,0.585 -0.813,0.737 -0.674,0.867 -0.513,0.972 -0.336,1.045 -0.15,1.087 10e-4,0.022 0.426,0 0.139,-1.015 0.314,-0.974 0.477,-0.905 0.629,-0.809 0.758,-0.687 0.867,-0.545 0.947,-0.386 1.001,-0.216 0.65,-0.024 -0.004,0.018 0.032,-0.004 0.342,0.005 0.335,0.065 0.319,0.121 0.293,0.176 0.259,0.224 0.215,0.265 0.166,0.299 0.112,0.323 0.053,0.337 -0.005,0.341 -0.064,0.336 -0.122,0.319 -0.176,0.293 -0.224,0.258 -0.265,0.216 -0.298,0.166 -0.323,0.111 -0.216,0.035 -0.006,0.014 -0.006,-0.006 -0.143,0.43 0,0.006 c 0,0.004 0.026,0.026 0.026,0.026 l 0.216,0.265 0.166,0.299 0.111,0.323 L 3.06,-5.666 3.055,-5.324 2.99,-4.989 2.868,-4.67 2.693,-4.377 2.469,-4.118 2.204,-3.903 1.905,-3.737 1.853,-3.719 1.83,-3.677 C 1.829,-3.678 1.785,-3.598 1.785,-3.598 L 1.556,-3.19 1.609,-3.199 1.62,-3.181 1.731,-2.857 1.785,-2.521 1.78,-2.179 1.715,-1.843 1.593,-1.524 1.417,-1.23 1.194,-0.973 0.929,-0.758 0.63,-0.591 0.307,-0.479 -0.03,-0.426 -0.372,-0.431 -0.708,-0.496 -1.026,-0.618 -1.319,-0.793 -1.52,-0.967 c 0.001,-0.001 -0.177,-0.139 -0.177,-0.139 l -0.687,-0.759 -0.545,-0.866 -0.386,-0.949 -0.216,-1.001 -0.038,-1.022 -0.426,0 0.041,1.075 0.231,1.074 0.414,1.017 0.585,0.93 0.737,0.813 0.174,0.135 0.018,0.014 c -0.001,0.001 -0.012,-0.008 -0.012,-0.008 l 0.237,0.206 0.357,0.213 0.389,0.149 0.408,0.078 L 0,0 Z"
               style="fill:#f0efef;fill-opacity:1;fill-rule:nonzero;stroke:none"
               id="path4337"
               inkscape:connector-curvature="0" /></g></g><g
           id="g4339"
           transform="matrix(0,-10.021495,-9.7757387,0,207.035,251.56551)"><g
             id="g4341"
             transform="translate(-556.3997,-16.0599)"><path
               d="m 0,0 0,-3.174 -0.907,0 0,2.04 -2.947,-2.04 -1.36,0 -0.454,0.453 0,2.267 0.454,0.454 0.906,0 0,-0.907 -0.453,0 0,-1.134 0.227,-0.227 0.453,0 L -0.907,0 0,0 Z"
               style="fill:#f0efef;fill-opacity:1;fill-rule:nonzero;stroke:none"
               id="path4343"
               inkscape:connector-curvature="0" /></g></g><g
           id="g4345"
           transform="matrix(0,-10.021495,-9.7757387,0,207.035,251.56551)"><g
             id="g4347"
             transform="translate(-556.3997,-12.3192)"><path
               d="m 0,0 0,-0.907 -3.4,0 3.4,-1.36 0,-0.907 -5.668,0 0,0.907 3.401,0 -3.401,1.36 0,0.907 L 0,0 Z"
               style="fill:#f0efef;fill-opacity:1;fill-rule:nonzero;stroke:none"
               id="path4349"
               inkscape:connector-curvature="0" /></g></g><g
           id="g4351"
           transform="matrix(0,-10.021495,-9.7757387,0,207.035,251.56551)"><g
             id="g4353"
             transform="translate(-525.3293,-4.578)"><path
               d="m 0,0 1.058,-1.058 0,-5.29 L 0,-7.406 l -11.109,0 -1.058,1.058 0,1.058 10.58,0 0.529,0.529 0,2.116 -0.529,0.529 -7.935,0 -0.529,-0.529 0,-2.116 0.529,-0.529 -2.645,0 0,4.232 L -11.109,0 0,0 Z"
               style="fill:#f0efef;fill-opacity:1;fill-rule:nonzero;stroke:none"
               id="path4355"
               inkscape:connector-curvature="0" /></g></g><g
           id="g4357"
           transform="matrix(0,-10.021495,-9.7757387,0,207.035,251.56551)"><g
             id="g4359"
             transform="translate(-540.0754,-14.7611)"><path
               d="m 0,0 0,-1.587 -7.539,0 1.191,-1.19 -1.191,-1.191 7.539,0 0,-1.587 -9.919,0 0,1.191 1.587,1.587 -1.587,1.587 0,1.19 L 0,0 Z"
               style="fill:#f0efef;fill-opacity:1;fill-rule:nonzero;stroke:none"
               id="path4361"
               inkscape:connector-curvature="0" /></g></g><g
           id="g4363"
           transform="matrix(0,-10.021495,-9.7757387,0,207.035,251.56551)"><g
             id="g4365"
             transform="translate(-540.0754,-8.243)"><path
               d="m 0,0 0,-1.587 -7.539,0 1.191,-1.19 -1.191,-1.191 7.539,0 0,-1.587 -9.919,0 0,1.191 1.587,1.587 -1.587,1.587 0,1.19 L 0,0 Z"
               style="fill:#f0efef;fill-opacity:1;fill-rule:nonzero;stroke:none"
               id="path4367"
               inkscape:connector-curvature="0" /></g></g><g
           id="g4369"
           transform="matrix(0,-10.021495,-9.7757387,0,207.035,251.56551)"><g
             id="g4371"
             transform="translate(-525.8586,3.7824)"><path
               d="m 0,0 1.587,-1.587 0,-4.232 L 0,-7.406 l -5.29,0 -1.587,1.587 0,3.703 -2.645,0 0,-5.29 -2.116,0 0,7.406 6.877,0 0,-4.761 0.529,-0.529 3.174,0 0.529,0.529 0,2.116 -0.529,0.529 -0.529,0 0,2.116 L 0,0 Z"
               style="fill:#f0efef;fill-opacity:1;fill-rule:nonzero;stroke:none"
               id="path4373"
               inkscape:connector-curvature="0" /></g></g><g
           id="g4375"
           transform="matrix(0,-10.021495,-9.7757387,0,207.035,251.56551)"><path
             d="m -502.313,-15.871 1.377,0 0,-2.84 -1.377,0 0,2.84 z"
             style="fill:#f0efef;fill-opacity:1;fill-rule:nonzero;stroke:none"
             id="path4377"
             inkscape:connector-curvature="0" /></g><g
           id="g4379"
           transform="matrix(0,-10.021495,-9.7757387,0,207.035,251.56551)"><path
             d="m -532.16,-12.768 2.116,0 0,-3.401 -2.116,0 0,3.401 z"
             style="fill:#f0efef;fill-opacity:1;fill-rule:nonzero;stroke:none"
             id="path4381"
             inkscape:connector-curvature="0" /></g><g
           id="g4383"
           transform="matrix(0,-10.021495,-9.7757387,0,207.035,251.56551)"><g
             id="g4385"
             transform="translate(-525.9055,-17.0472)"><path
               d="m 0,0 1.587,-1.587 0,-4.232 L 0,-7.406 l -4.761,0 -1.587,1.587 0,3.174 -0.529,0.529 -2.116,0 -0.529,-0.529 0,-2.116 0.529,-0.529 0.529,0 0,-2.116 -1.587,0 -1.587,1.587 0,4.232 1.587,1.587 4.232,0 1.587,-1.587 0,-3.174 0.529,-0.529 2.645,0 0.529,0.529 0,2.116 -0.529,0.529 -0.529,0 0,2.116 L 0,0 Z"
               style="fill:#f0efef;fill-opacity:1;fill-rule:nonzero;stroke:none"
               id="path4387"
               inkscape:connector-curvature="0" /></g></g><g
           id="g4389"
           transform="matrix(0,-10.021495,-9.7757387,0,207.035,251.56551)"><g
             id="g4391"
             transform="translate(-561.1604,-19.8011)"><path
               d="m 0,0 0,-1.133 4.761,0 0,-0.908 -4.761,0 0,-1.133 -0.907,0 0,3.174 L 0,0 Z"
               style="fill:#f0efef;fill-opacity:1;fill-rule:nonzero;stroke:none"
               id="path4393"
               inkscape:connector-curvature="0" /></g></g><g
           id="g4395"
           transform="matrix(0,-10.021495,-9.7757387,0,207.035,251.56551)"><g
             id="g4397"
             transform="translate(-563.1443,2.2755)"><path
               d="m 0,0 0.765,-1.19 3.259,0 0.454,-1.871 2.267,-0.907 -0.142,-0.425 -2.494,1.021 -0.425,1.728 -3.145,0 -0.624,1.021 -1.701,-1.247 -0.777,0 -0.233,-0.009 -1.114,-0.239 -1.054,-0.43 -0.964,-0.605 -0.844,-0.765 -0.699,-0.898 -0.532,-1.007 -0.349,-1.084 -0.021,-0.151 -0.487,-0.424 0.058,0.424 0.034,0.246 0.372,1.155 0.567,1.072 0.744,0.958 0.899,0.814 1.027,0.645 1.124,0.457 1.185,0.256 0.275,0.01 0.647,0 -0.647,0 0.673,0.025 C -1.899,-1.417 0,0 0,0"
               style="fill:#f0efef;fill-opacity:1;fill-rule:nonzero;stroke:none"
               id="path4399"
               inkscape:connector-curvature="0" /></g></g><g
           id="g4401"
           transform="matrix(0,-10.021495,-9.7757387,0,207.035,251.56551)"><g
             id="g4403"
             transform="translate(-508.1174,-0.1571)"><path
               d="m 0,0 0,-5.29 -2.116,0 0,1.587 -11.11,0 0,2.645 1.059,1.058 1.058,0 0,-1.587 8.993,0 0,1.587 L 0,0 Z"
               style="fill:#f0efef;fill-opacity:1;fill-rule:nonzero;stroke:none"
               id="path4405"
               inkscape:connector-curvature="0" /></g></g><g
           id="g4407"
           transform="matrix(0,-10.021495,-9.7757387,0,207.035,251.56551)"><g
             id="g4409"
             transform="translate(-497.4631,-19.5145)"><path
               d="m 0,0 0,-4.82 -1.377,0 0,3.098 -4.477,-3.098 -2.066,0 -0.688,0.688 0,3.444 0.688,0.688 1.378,0 0,-1.377 -0.689,0 0,-1.722 0.344,-0.344 0.689,0 L -1.377,0 0,0 Z"
               style="fill:#f0efef;fill-opacity:1;fill-rule:nonzero;stroke:none"
               id="path4411"
               inkscape:connector-curvature="0" /></g></g><g
           id="g4413"
           transform="matrix(0,-10.021495,-9.7757387,0,207.035,251.56551)"><g
             id="g4415"
             transform="translate(-497.4631,-6.9178)"><path
               d="m 0,0 0,-4.82 -1.377,0 0,3.443 -7.231,0 0,1.377 L 0,0 Z"
               style="fill:#f0efef;fill-opacity:1;fill-rule:nonzero;stroke:none"
               id="path4417"
               inkscape:connector-curvature="0" /></g></g><g
           id="g4419"
           transform="matrix(0,-10.021495,-9.7757387,0,207.035,251.56551)"><g
             id="g4421"
             transform="translate(-497.4631,4.0148)"><path
               d="m 0,0 0,-1.377 -3.788,0 0,-2.41 -1.033,-1.033 -2.755,0 -1.032,1.033 0,0.344 3.099,0 0.344,0.344 0,1.722 -2.066,0 0,-1.722 0.344,-0.344 -1.721,0 0,3.443 L 0,0 Z"
               style="fill:#f0efef;fill-opacity:1;fill-rule:nonzero;stroke:none"
               id="path4423"
               inkscape:connector-curvature="0" /></g></g><g
           id="g4425"
           transform="matrix(0,-10.021495,-9.7757387,0,207.035,251.56551)"><g
             id="g4427"
             transform="translate(-506.0715,-10.5907)"><path
               d="m 0,0 4.132,-1.722 4.476,0 0,-1.377 -4.476,0 L 0,-4.82 0,-3.443 2.41,-2.41 0,-1.377 0,0 Z"
               style="fill:#f0efef;fill-opacity:1;fill-rule:nonzero;stroke:none"
               id="path4429"
               inkscape:connector-curvature="0" /></g></g><g
           id="g4431"
           transform="matrix(0,-10.021495,-9.7757387,0,207.035,251.56551)"><g
             id="g4433"
             transform="translate(-518.1687,-4.8143)"><path
               d="m 0,0 0,-2.115 -1.058,0 0,-3.175 11.109,3.703 0,-2.116 -10.58,-3.703 -2.645,0 0,7.406 L 0,0 Z"
               style="fill:#f0efef;fill-opacity:1;fill-rule:nonzero;stroke:none"
               id="path4435"
               inkscape:connector-curvature="0" /></g></g><g
           id="g4437"
           transform="matrix(0,-10.021495,-9.7757387,0,207.035,251.56551)"><g
             id="g4439"
             transform="translate(8.6135,-12.1683)"><path
               d="m 0,0 -0.022,-0.176 -0.066,-0.165 -0.103,-0.143 -0.137,-0.114 -0.161,-0.075 -0.175,-0.035 -0.178,0.012 -0.168,0.055 -0.15,0.095 -0.121,0.129 -0.085,0.156 -0.045,0.173 0,0.177 0.045,0.172 0.085,0.156 0.121,0.129 0.15,0.096 0.168,0.054 0.178,0.012 L -0.489,0.674 -0.328,0.598 -0.191,0.485 -0.088,0.341 -0.022,0.177 0,0 Z"
               style="fill:#f0efef;fill-opacity:1;fill-rule:nonzero;stroke:none"
               id="path4441"
               inkscape:connector-curvature="0" /></g></g><g
           id="g4443"
           transform="matrix(0,-10.021495,-9.7757387,0,207.035,251.56551)"><g
             id="g4445"
             transform="translate(-15.0251,-8.2547)"><path
               d="m 0,0 -0.065,-0.164 -0.104,-0.144 -0.138,-0.113 -0.16,-0.075 -0.175,-0.034 -0.177,0.01 -0.168,0.055 -0.151,0.096 -0.122,0.13 -0.085,0.155 -0.044,0.172 0,0.178 0.044,0.171 0.085,0.157 0.122,0.129 0.151,0.095 0.168,0.055 0.177,0.012 0.175,-0.034 0.16,-0.076 L -0.169,0.662 -0.065,0.519 0,0.354 0.022,0.177 0,0 Z"
               style="fill:#f0efef;fill-opacity:1;fill-rule:nonzero;stroke:none"
               id="path4447"
               inkscape:connector-curvature="0" /></g></g><g
           id="g4449"
           transform="matrix(0,-10.021495,-9.7757387,0,207.035,251.56551)"><g
             id="g4451"
             transform="translate(-19.7488,-8.2547)"><path
               d="m 0,0 -0.065,-0.164 -0.104,-0.144 -0.137,-0.113 -0.161,-0.075 -0.175,-0.034 -0.177,0.01 -0.168,0.055 -0.151,0.096 -0.121,0.13 -0.085,0.155 -0.045,0.172 0,0.178 0.045,0.171 0.085,0.157 0.121,0.129 0.151,0.095 0.168,0.055 0.177,0.012 L -0.467,0.851 -0.306,0.775 -0.169,0.662 -0.065,0.519 0,0.354 0.022,0.177 0,0 Z"
               style="fill:#f0efef;fill-opacity:1;fill-rule:nonzero;stroke:none"
               id="path4453"
               inkscape:connector-curvature="0" /></g></g><g
           id="g4455"
           transform="matrix(0,-10.021495,-9.7757387,0,207.035,251.56551)"><g
             id="g4457"
             transform="translate(-10.3025,-8.2547)"><path
               d="m 0,0 -0.064,-0.164 -0.105,-0.144 -0.137,-0.113 -0.16,-0.075 -0.175,-0.034 -0.177,0.01 -0.169,0.055 -0.15,0.096 -0.122,0.13 -0.085,0.155 -0.045,0.172 0,0.178 0.045,0.171 0.085,0.157 0.122,0.129 0.15,0.095 0.169,0.055 0.177,0.012 0.175,-0.034 0.16,-0.076 L -0.169,0.662 -0.064,0.519 0,0.354 0.023,0.177 0,0 Z"
               style="fill:#f0efef;fill-opacity:1;fill-rule:nonzero;stroke:none"
               id="path4459"
               inkscape:connector-curvature="0" /></g></g><g
           id="g4461"
           transform="matrix(0,-10.021495,-9.7757387,0,207.035,251.56551)"><g
             id="g4463"
             transform="translate(-5.5789,-8.2547)"><path
               d="m 0,0 -0.065,-0.164 -0.104,-0.144 -0.137,-0.113 -0.161,-0.075 -0.175,-0.034 -0.177,0.01 -0.168,0.055 -0.151,0.096 -0.121,0.13 -0.085,0.155 -0.045,0.172 0,0.178 0.045,0.171 0.085,0.157 0.121,0.129 0.151,0.095 0.168,0.055 0.177,0.012 L -0.467,0.851 -0.306,0.775 -0.169,0.662 -0.065,0.519 0,0.354 0.022,0.177 0,0 Z"
               style="fill:#f0efef;fill-opacity:1;fill-rule:nonzero;stroke:none"
               id="path4465"
               inkscape:connector-curvature="0" /></g></g><g
           id="g4467"
           transform="matrix(0,-10.021495,-9.7757387,0,207.035,251.56551)"><g
             id="g4469"
             transform="translate(-0.8552,-8.2547)"><path
               d="m 0,0 -0.065,-0.164 -0.104,-0.144 -0.138,-0.113 -0.16,-0.075 -0.175,-0.034 -0.177,0.01 -0.168,0.055 -0.151,0.096 -0.122,0.13 -0.085,0.155 -0.044,0.172 0,0.178 0.044,0.171 0.085,0.157 0.122,0.129 0.151,0.095 0.168,0.055 0.177,0.012 0.175,-0.034 0.16,-0.076 L -0.169,0.662 -0.065,0.519 0,0.354 0.022,0.177 0,0 Z"
               style="fill:#f0efef;fill-opacity:1;fill-rule:nonzero;stroke:none"
               id="path4471"
               inkscape:connector-curvature="0" /></g></g><g
           id="g4473"
           transform="matrix(0,-10.021495,-9.7757387,0,207.035,251.56551)"><g
             id="g4475"
             transform="translate(3.8674,-8.2547)"><path
               d="m 0,0 -0.064,-0.164 -0.105,-0.144 -0.137,-0.113 -0.16,-0.075 -0.175,-0.034 -0.177,0.01 -0.168,0.055 -0.151,0.096 -0.122,0.13 -0.085,0.155 -0.045,0.172 0,0.178 0.045,0.171 0.085,0.157 0.122,0.129 0.151,0.095 0.168,0.055 0.177,0.012 0.175,-0.034 0.16,-0.076 L -0.169,0.662 -0.064,0.519 0,0.354 0.023,0.177 0,0 Z"
               style="fill:#f0efef;fill-opacity:1;fill-rule:nonzero;stroke:none"
               id="path4477"
               inkscape:connector-curvature="0" /></g></g><g
           id="g4479"
           transform="matrix(0,-10.021495,-9.7757387,0,207.035,251.56551)"><g
             id="g4481"
             transform="translate(8.5911,-8.2547)"><path
               d="m 0,0 -0.065,-0.164 -0.104,-0.144 -0.137,-0.113 -0.161,-0.075 -0.175,-0.034 -0.177,0.01 -0.168,0.055 -0.151,0.096 -0.121,0.13 -0.085,0.155 -0.045,0.172 0,0.178 0.045,0.171 0.085,0.157 0.121,0.129 0.151,0.095 0.168,0.055 0.177,0.012 L -0.467,0.851 -0.306,0.775 -0.169,0.662 -0.065,0.519 0,0.354 0.022,0.177 0,0 Z"
               style="fill:#f0efef;fill-opacity:1;fill-rule:nonzero;stroke:none"
               id="path4483"
               inkscape:connector-curvature="0" /></g></g><g
           id="g4485"
           transform="matrix(0,-10.021495,-9.7757387,0,207.035,251.56551)"><g
             id="g4487"
             transform="translate(13.3147,-8.2547)"><path
               d="m 0,0 -0.065,-0.164 -0.104,-0.144 -0.138,-0.113 -0.16,-0.075 -0.175,-0.034 -0.177,0.01 -0.168,0.055 -0.151,0.096 -0.122,0.13 -0.085,0.155 -0.044,0.172 0,0.178 0.044,0.171 0.085,0.157 0.122,0.129 0.151,0.095 0.168,0.055 0.177,0.012 0.175,-0.034 0.16,-0.076 L -0.169,0.662 -0.065,0.519 0,0.354 0.022,0.177 0,0 Z"
               style="fill:#f0efef;fill-opacity:1;fill-rule:nonzero;stroke:none"
               id="path4489"
               inkscape:connector-curvature="0" /></g></g><g
           id="g4491"
           transform="matrix(0,-10.021495,-9.7757387,0,207.035,251.56551)"><g
             id="g4493"
             transform="translate(-15.0027,-12.1683)"><path
               d="m 0,0 -0.022,-0.176 -0.066,-0.165 -0.103,-0.143 -0.138,-0.114 -0.16,-0.075 -0.175,-0.035 -0.178,0.012 -0.168,0.055 -0.15,0.095 -0.122,0.129 -0.085,0.156 -0.044,0.173 0,0.177 0.044,0.172 0.085,0.156 0.122,0.129 0.15,0.096 0.168,0.054 0.178,0.012 0.175,-0.034 0.16,-0.076 L -0.191,0.485 -0.088,0.341 -0.022,0.177 0,0 Z"
               style="fill:#f0efef;fill-opacity:1;fill-rule:nonzero;stroke:none"
               id="path4495"
               inkscape:connector-curvature="0" /></g></g><g
           id="g4497"
           transform="matrix(0,-10.021495,-9.7757387,0,207.035,251.56551)"><g
             id="g4499"
             transform="translate(-19.7263,-12.1683)"><path
               d="m 0,0 -0.022,-0.176 -0.066,-0.165 -0.103,-0.143 -0.137,-0.114 -0.161,-0.075 -0.175,-0.035 -0.178,0.012 -0.168,0.055 -0.15,0.095 -0.121,0.129 -0.085,0.156 -0.045,0.173 0,0.177 0.045,0.172 0.085,0.156 0.121,0.129 0.15,0.096 0.168,0.054 0.178,0.012 L -0.489,0.674 -0.328,0.598 -0.191,0.485 -0.088,0.341 -0.022,0.177 0,0 Z"
               style="fill:#f0efef;fill-opacity:1;fill-rule:nonzero;stroke:none"
               id="path4501"
               inkscape:connector-curvature="0" /></g></g><g
           id="g4503"
           transform="matrix(0,-10.021495,-9.7757387,0,207.035,251.56551)"><g
             id="g4505"
             transform="translate(-10.2791,-12.1683)"><path
               d="m 0,0 -0.023,-0.176 -0.065,-0.165 -0.104,-0.143 -0.137,-0.114 -0.16,-0.075 -0.175,-0.035 -0.178,0.012 -0.169,0.055 -0.149,0.095 -0.122,0.129 -0.085,0.156 -0.045,0.173 0,0.177 0.045,0.172 0.085,0.156 0.122,0.129 0.149,0.096 0.169,0.054 0.178,0.012 0.175,-0.034 0.16,-0.076 L -0.192,0.485 -0.088,0.341 -0.023,0.177 0,0 Z"
               style="fill:#f0efef;fill-opacity:1;fill-rule:nonzero;stroke:none"
               id="path4507"
               inkscape:connector-curvature="0" /></g></g><g
           id="g4509"
           transform="matrix(0,-10.021495,-9.7757387,0,207.035,251.56551)"><g
             id="g4511"
             transform="translate(-5.5564,-12.1683)"><path
               d="m 0,0 -0.022,-0.176 -0.066,-0.165 -0.103,-0.143 -0.137,-0.114 -0.161,-0.075 -0.175,-0.035 -0.178,0.012 -0.168,0.055 -0.15,0.095 -0.121,0.129 -0.085,0.156 -0.045,0.173 0,0.177 0.045,0.172 0.085,0.156 0.121,0.129 0.15,0.096 0.168,0.054 0.178,0.012 L -0.489,0.674 -0.328,0.598 -0.191,0.485 -0.088,0.341 -0.022,0.177 0,0 Z"
               style="fill:#f0efef;fill-opacity:1;fill-rule:nonzero;stroke:none"
               id="path4513"
               inkscape:connector-curvature="0" /></g></g><g
           id="g4515"
           transform="matrix(0,-10.021495,-9.7757387,0,207.035,251.56551)"><g
             id="g4517"
             transform="translate(-0.8328,-12.1683)"><path
               d="m 0,0 -0.022,-0.176 -0.066,-0.165 -0.103,-0.143 -0.138,-0.114 -0.16,-0.075 -0.175,-0.035 -0.178,0.012 -0.168,0.055 -0.15,0.095 -0.122,0.129 -0.085,0.156 -0.044,0.173 0,0.177 0.044,0.172 0.085,0.156 0.122,0.129 0.15,0.096 0.168,0.054 0.178,0.012 0.175,-0.034 0.16,-0.076 L -0.191,0.485 -0.088,0.341 -0.022,0.177 0,0 Z"
               style="fill:#f0efef;fill-opacity:1;fill-rule:nonzero;stroke:none"
               id="path4519"
               inkscape:connector-curvature="0" /></g></g><g
           id="g4521"
           transform="matrix(0,-10.021495,-9.7757387,0,207.035,251.56551)"><g
             id="g4523"
             transform="translate(3.8909,-12.1683)"><path
               d="m 0,0 -0.023,-0.176 -0.065,-0.165 -0.104,-0.143 -0.137,-0.114 -0.16,-0.075 -0.175,-0.035 -0.178,0.012 -0.168,0.055 -0.15,0.095 -0.122,0.129 -0.085,0.156 -0.045,0.173 0,0.177 0.045,0.172 0.085,0.156 0.122,0.129 0.15,0.096 0.168,0.054 0.178,0.012 0.175,-0.034 0.16,-0.076 L -0.192,0.485 -0.088,0.341 -0.023,0.177 0,0 Z"
               style="fill:#f0efef;fill-opacity:1;fill-rule:nonzero;stroke:none"
               id="path4525"
               inkscape:connector-curvature="0" /></g></g><g
           id="g4527"
           transform="matrix(0,-10.021495,-9.7757387,0,207.035,251.56551)"><g
             id="g4529"
             transform="translate(13.3372,-12.1683)"><path
               d="m 0,0 -0.022,-0.176 -0.066,-0.165 -0.103,-0.143 -0.138,-0.114 -0.16,-0.075 -0.175,-0.035 -0.178,0.012 -0.168,0.055 -0.15,0.095 -0.122,0.129 -0.085,0.156 -0.044,0.173 0,0.177 0.044,0.172 0.085,0.156 0.122,0.129 0.15,0.096 0.168,0.054 0.178,0.012 0.175,-0.034 0.16,-0.076 L -0.191,0.485 -0.088,0.341 -0.022,0.177 0,0 Z"
               style="fill:#f0efef;fill-opacity:1;fill-rule:nonzero;stroke:none"
               id="path4531"
               inkscape:connector-curvature="0" /></g></g></g></g><text
       transform="matrix(1,0,0,-1,260.096,452.2761)"
       style="font-variant:normal;font-weight:bold;font-stretch:normal;font-size:12px;font-family:'Vectora LT Std Light';-inkscape-font-specification:VectoraLTStd-Bold;writing-mode:lr-tb;fill:#386885;fill-opacity:1;fill-rule:nonzero;stroke:none"
       id="text4533"><tspan
         x="0"
         y="0"
         id="tspan4535">3</tspan></text>
<text
       transform="matrix(1,0,0,-1,260.096,404.8761)"
       style="font-variant:normal;font-weight:bold;font-stretch:normal;font-size:12px;font-family:'Vectora LT Std Light';-inkscape-font-specification:VectoraLTStd-Bold;writing-mode:lr-tb;fill:#386885;fill-opacity:1;fill-rule:nonzero;stroke:none"
       id="text4537"><tspan
         x="0"
         y="0"
         id="tspan4539">6</tspan></text>
<text
       transform="matrix(1,0,0,-1,260.096,357.4761)"
       style="font-variant:normal;font-weight:bold;font-stretch:normal;font-size:12px;font-family:'Vectora LT Std Light';-inkscape-font-specification:VectoraLTStd-Bold;writing-mode:lr-tb;fill:#386885;fill-opacity:1;fill-rule:nonzero;stroke:none"
       id="text4541"><tspan
         x="0"
         y="0"
         id="tspan4543">1</tspan></text>
<text
       transform="matrix(1,0,0,-1,260.096,310.076)"
       style="font-variant:normal;font-weight:bold;font-stretch:normal;font-size:12px;font-family:'Vectora LT Std Light';-inkscape-font-specification:VectoraLTStd-Bold;writing-mode:lr-tb;fill:#386885;fill-opacity:1;fill-rule:nonzero;stroke:none"
       id="text4545"><tspan
         x="0"
         y="0"
         id="tspan4547">2</tspan></text>
<text
       transform="matrix(1,0,0,-1,260.096,262.6761)"
       style="font-variant:normal;font-weight:bold;font-stretch:normal;font-size:12px;font-family:'Vectora LT Std Light';-inkscape-font-specification:VectoraLTStd-Bold;writing-mode:lr-tb;fill:#386885;fill-opacity:1;fill-rule:nonzero;stroke:none"
       id="text4549"><tspan
         x="0"
         y="0"
         id="tspan4551">5</tspan></text>
<text
       transform="matrix(1,0,0,-1,260.096,215.2761)"
       style="font-variant:normal;font-weight:bold;font-stretch:normal;font-size:12px;font-family:'Vectora LT Std Light';-inkscape-font-specification:VectoraLTStd-Bold;writing-mode:lr-tb;fill:#386885;fill-opacity:1;fill-rule:nonzero;stroke:none"
       id="text4553"><tspan
         x="0"
         y="0"
         id="tspan4555">4</tspan></text>
<text
       transform="matrix(1,0,0,-1,260.096,167.8761)"
       style="font-variant:normal;font-weight:bold;font-stretch:normal;font-size:12px;font-family:'Vectora LT Std Light';-inkscape-font-specification:VectoraLTStd-Bold;writing-mode:lr-tb;fill:#386885;fill-opacity:1;fill-rule:nonzero;stroke:none"
       id="text4557"><tspan
         x="0"
         y="0"
         id="tspan4559">7</tspan></text>
<text
       transform="matrix(1,0,0,-1,260.096,120.4761)"
       style="font-variant:normal;font-weight:bold;font-stretch:normal;font-size:12px;font-family:'Vectora LT Std Light';-inkscape-font-specification:VectoraLTStd-Bold;writing-mode:lr-tb;fill:#386885;fill-opacity:1;fill-rule:nonzero;stroke:none"
       id="text4561"><tspan
         x="0"
         y="0"
         id="tspan4563">8</tspan></text>
<text
       transform="matrix(1,0,0,-1,343.2,452.2761)"
       style="font-variant:normal;font-weight:bold;font-stretch:normal;font-size:12px;font-family:'Vectora LT Std Light';-inkscape-font-specification:VectoraLTStd-Bold;writing-mode:lr-tb;fill:#386885;fill-opacity:1;fill-rule:nonzero;stroke:none"
       id="text4565"><tspan
         x="0 6.8039999"
         y="0"
         sodipodi:role="line"
         id="tspan4567">14</tspan></text>
<text
       transform="matrix(1,0,0,-1,343.2,404.8761)"
       style="font-variant:normal;font-weight:bold;font-stretch:normal;font-size:12px;font-family:'Vectora LT Std Light';-inkscape-font-specification:VectoraLTStd-Bold;writing-mode:lr-tb;fill:#386885;fill-opacity:1;fill-rule:nonzero;stroke:none"
       id="text4569"><tspan
         x="0 6.8039999"
         y="0"
         sodipodi:role="line"
         id="tspan4571">11</tspan></text>
<text
       transform="matrix(1,0,0,-1,343.2,357.4761)"
       style="font-variant:normal;font-weight:bold;font-stretch:normal;font-size:12px;font-family:'Vectora LT Std Light';-inkscape-font-specification:VectoraLTStd-Bold;writing-mode:lr-tb;fill:#386885;fill-opacity:1;fill-rule:nonzero;stroke:none"
       id="text4573"><tspan
         x="0 6.8039999"
         y="0"
         sodipodi:role="line"
         id="tspan4575">16</tspan></text>
<text
       transform="matrix(1,0,0,-1,343.2,310.076)"
       style="font-variant:normal;font-weight:bold;font-stretch:normal;font-size:12px;font-family:'Vectora LT Std Light';-inkscape-font-specification:VectoraLTStd-Bold;writing-mode:lr-tb;fill:#386885;fill-opacity:1;fill-rule:nonzero;stroke:none"
       id="text4577"><tspan
         x="0 6.8039999"
         y="0"
         sodipodi:role="line"
         id="tspan4579">15</tspan></text>
<text
       transform="matrix(1,0,0,-1,343.2,262.6761)"
       style="font-variant:normal;font-weight:bold;font-stretch:normal;font-size:12px;font-family:'Vectora LT Std Light';-inkscape-font-specification:VectoraLTStd-Bold;writing-mode:lr-tb;fill:#386885;fill-opacity:1;fill-rule:nonzero;stroke:none"
       id="text4581"><tspan
         x="0 6.8039999"
         y="0"
         sodipodi:role="line"
         id="tspan4583">12</tspan></text>
<text
       transform="matrix(1,0,0,-1,343.2,215.2761)"
       style="font-variant:normal;font-weight:bold;font-stretch:normal;font-size:12px;font-family:'Vectora LT Std Light';-inkscape-font-specification:VectoraLTStd-Bold;writing-mode:lr-tb;fill:#386885;fill-opacity:1;fill-rule:nonzero;stroke:none"
       id="text4585"><tspan
         x="0 6.8039999"
         y="0"
         sodipodi:role="line"
         id="tspan4587">13</tspan></text>
<text
       transform="matrix(1,0,0,-1,343.2,167.8761)"
       style="font-variant:normal;font-weight:bold;font-stretch:normal;font-size:12px;font-family:'Vectora LT Std Light';-inkscape-font-specification:VectoraLTStd-Bold;writing-mode:lr-tb;fill:#386885;fill-opacity:1;fill-rule:nonzero;stroke:none"
       id="text4589"><tspan
         x="0 6.8039999"
         y="0"
         sodipodi:role="line"
         id="tspan4591">10</tspan></text>
<text
       transform="matrix(1,0,0,-1,343.2,120.4761)"
       style="font-variant:normal;font-weight:bold;font-stretch:normal;font-size:12px;font-family:'Vectora LT Std Light';-inkscape-font-specification:VectoraLTStd-Bold;writing-mode:lr-tb;fill:#386885;fill-opacity:1;fill-rule:nonzero;stroke:none"
       id="text4593"><tspan
         x="0"
         y="0"
         id="tspan4595">9</tspan></text>
<text
       transform="matrix(1,0,0,-1,36,617.0761)"
       style="font-variant:normal;font-weight:bold;font-stretch:normal;font-size:12px;font-family:'Vectora LT Std Light';-inkscape-font-specification:VectoraLTStd-Bold;writing-mode:lr-tb;fill:#2c8bd6;fill-opacity:1;fill-rule:nonzero;stroke:none"
       id="text4597"><tspan
         x="0 8.6639996 15.768 22.656 29.76 36.863998 40.644001 47.976002 55.32 58.655998 65.328003 72.431999 76.211998 83.543999 88.428001"
         y="0"
         sodipodi:role="line"
         id="tspan4599">A1x16-Poly2-Std</tspan></text>
<text
       transform="matrix(1,0,0,-1,558.2281,617.0761)"
       style="font-variant:normal;font-weight:bold;font-stretch:normal;font-size:12px;font-family:'Vectora LT Std Light';-inkscape-font-specification:VectoraLTStd-Bold;writing-mode:lr-tb;fill:#134b69;fill-opacity:1;fill-rule:nonzero;stroke:none"
       id="text4601"><tspan
         x="0 7.1160002 10.668"
         y="0"
         sodipodi:role="line"
         id="tspan4603">p.3</tspan></text>
</g></svg>