<?xml version="1.0" encoding="utf-8"?>
<!-- Generator: Adobe Illustrator 16.0.4, SVG Export Plug-In . SVG Version: 6.00 Build 0)  -->
<!DOCTYPE svg PUBLIC "-//W3C//DTD SVG 1.1//EN" "http://www.w3.org/Graphics/SVG/1.1/DTD/svg11.dtd">
<svg version="1.1" id="Layer_1" xmlns="http://www.w3.org/2000/svg" xmlns:xlink="http://www.w3.org/1999/xlink" x="0px" y="0px"
	 width="612px" height="792px" viewBox="0 0 612 792" enable-background="new 0 0 612 792" xml:space="preserve">
<g>
	<defs>
		<rect id="SVGID_1_" width="612" height="792"/>
	</defs>
	<clipPath id="SVGID_2_">
		<use xlink:href="#SVGID_1_"  overflow="visible"/>
	</clipPath>
	<rect clip-path="url(#SVGID_2_)" fill="#EDEDEE" width="612" height="126"/>
	<g clip-path="url(#SVGID_2_)">
		<defs>
			<rect id="SVGID_3_" x="36" y="43.004" width="261" height="47.192"/>
		</defs>
		<clipPath id="SVGID_4_">
			<use xlink:href="#SVGID_3_"  overflow="visible"/>
		</clipPath>
		<path clip-path="url(#SVGID_4_)" fill="#414142" d="M106.1,56.089h6.304l6.208,11.271c1.241,2.287,2.678,5.358,3.005,6.893h0.229
			c-0.131-1.176-0.229-3.92-0.229-6.403v-11.76h4.508v23.26h-6.468l-7.089-13.296c-0.784-1.437-1.601-3.398-1.993-4.868h-0.196
			c0.099,1.601,0.229,3.431,0.229,5.39v12.774H106.1V56.089z"/>
		<path clip-path="url(#SVGID_4_)" fill="#414142" d="M145.758,74.808c-1.045,2.581-3.135,4.932-7.578,4.932
			c-5.489,0-8.952-3.854-8.952-10.225c0-5.978,3.235-10.094,8.984-10.094c5.521,0,8.265,4.41,8.265,9.572v1.763h-12.544
			c0,2.32,0.784,5.652,4.148,5.652c2.124,0,3.365-1.699,3.692-2.907L145.758,74.808z M141.773,67.621
			c0-3.137-1.405-4.933-3.725-4.868c-2.874-0.065-3.953,2.352-4.115,4.868H141.773z"/>
		<path clip-path="url(#SVGID_4_)" fill="#414142" d="M165.064,79.349h-4.704v-2.974c-1.568,1.569-3.692,3.365-6.533,3.365
			c-3.594,0-4.541-2.874-4.541-5.749V59.813h4.704v13.165c0,1.83,0.914,2.778,2.221,2.778c1.503,0,2.45-0.916,4.149-2.516V59.813
			h4.704V79.349z"/>
		<path clip-path="url(#SVGID_4_)" fill="#414142" d="M169.115,59.813h4.704v3.071h0.065c1.209-1.601,3.169-3.463,5.522-3.463
			c0.293,0,0.587,0.033,0.881,0.065v4.312c-0.62-0.065-1.143-0.131-1.666-0.131c-2.319,0-3.724,1.503-4.802,2.68v13.002h-4.704
			V59.813z"/>
		<path clip-path="url(#SVGID_4_)" fill="#414142" d="M189.793,59.421c5.717,0,8.951,4.116,8.951,10.094
			c0,6.37-3.724,10.225-8.951,10.225c-5.488,0-8.951-3.855-8.951-10.225C180.842,63.538,184.338,59.421,189.793,59.421
			 M189.793,76.408c2.483,0,4.051-1.895,4.051-6.828c0-4.802-1.568-6.827-4.051-6.827c-2.482,0-4.05,2.025-4.05,6.827
			C185.743,74.514,187.312,76.408,189.793,76.408"/>
		<path clip-path="url(#SVGID_4_)" fill="#414142" d="M201.848,56.089h6.306l6.205,11.271c1.242,2.287,2.679,5.358,3.006,6.893
			h0.229c-0.13-1.176-0.229-3.92-0.229-6.403v-11.76h4.508v23.26h-6.468l-7.088-13.296c-0.785-1.437-1.601-3.398-1.994-4.868h-0.195
			c0.098,1.601,0.228,3.431,0.228,5.39v12.774h-4.508V56.089z"/>
		<path clip-path="url(#SVGID_4_)" fill="#414142" d="M241.505,74.808c-1.045,2.581-3.136,4.932-7.579,4.932
			c-5.488,0-8.951-3.854-8.951-10.225c0-5.978,3.235-10.094,8.984-10.094c5.52,0,8.264,4.41,8.264,9.572v1.763H229.68
			c0,2.32,0.784,5.652,4.148,5.652c2.124,0,3.365-1.699,3.692-2.907L241.505,74.808z M237.521,67.621
			c0-3.137-1.405-4.933-3.724-4.868c-2.875-0.065-3.953,2.352-4.116,4.868H237.521z"/>
		<path clip-path="url(#SVGID_4_)" fill="#414142" d="M249.011,68.927l-5.455-9.114h5.324l2.549,4.737
			c0.326,0.62,0.718,1.372,0.98,1.993h0.131c0.293-0.687,0.554-1.274,0.816-1.732l2.777-4.998h4.9l-5.489,9.05l6.012,10.486H256.1
			l-3.202-6.011c-0.261-0.49-0.555-1.143-0.685-1.535h-0.164c-0.229,0.424-0.523,1.012-0.784,1.535l-3.365,6.011h-5.031
			L249.011,68.927z"/>
		<path clip-path="url(#SVGID_4_)" fill="#414142" d="M279.13,79.349h-4.704v-2.974c-1.568,1.569-3.692,3.365-6.533,3.365
			c-3.593,0-4.542-2.874-4.542-5.749V59.813h4.705v13.165c0,1.83,0.915,2.778,2.221,2.778c1.503,0,2.45-0.916,4.149-2.516V59.813
			h4.704V79.349z"/>
		<path clip-path="url(#SVGID_4_)" fill="#414142" d="M292.72,65.17c-0.261-0.947-0.751-2.613-3.398-2.613
			c-1.274,0-2.547,0.654-2.547,2.189c0,1.437,1.208,1.829,2.058,2.123l3.756,1.241c2.646,0.85,4.411,2.418,4.411,5.325
			c0,5.064-4.084,6.305-8.33,6.305c-5.032,0-6.534-3.267-6.927-4.966l4.018-1.24c0.524,1.796,1.438,2.874,3.595,2.874
			c2.155,0,2.939-1.47,2.939-2.451c0.033-1.436-1.045-1.894-2.156-2.221l-3.005-0.947c-2.777-0.849-4.868-2.45-4.868-5.423
			c0-4.247,3.398-5.945,7.056-5.945c4.443,0,6.599,2.189,7.319,4.541L292.72,65.17z"/>
		<path clip-path="url(#SVGID_4_)" fill="#0193D7" d="M78.707,79.964l1.029-11.59c0.126-1.699,0.27-3.435,0.829-5.064
			c0.724-2.122,1.66-2.479,2.513-0.657c0.661,1.414,1.026,2.623,1.45,3.82c0.397,1.119,0.797,1.229,1.738,0.964
			c0.816-0.23,1.241-0.496,2.448-0.496c1.242,0,1.984,0.581,3.095,0.581h3.518c-0.273-1.486-0.769-3.076-1.444-4.712
			c-3.453-8.367-9.759-13.514-17.026-15.842L78.707,79.964z"/>
		<path clip-path="url(#SVGID_4_)" fill="#0193D7" d="M41.144,67.522c0.799-0.008,3.236-0.073,4.398,0.424
			c2.253,0.967,3.286-2.693,3.513-4.77l0.879-7.046l1.373,13.45c0.747-1.695,1.416-2.063,4.016-2.058h7.98
			c1.98,0,2.779-0.04,3.755-0.552c0.978-0.511,1.504-0.541,2.218-0.417c0.79,0.138,1.142,1.13,2.013,0.69l1.241-0.483
			c0.984-0.312,1.341-0.902,1.442-1.704l2.524-18.203c-12.573-3.849-27.907,0.659-36.329,11.516
			c-2.723,3.512-3.927,6.592-4.166,9.153H41.144z"/>
		<path clip-path="url(#SVGID_4_)" fill="#0193D7" d="M76.292,55.841c-0.04,0.914-0.958,9.139-1.253,11.165
			c-0.299,2.06-1.223,2.744-2.174,3.112c-0.295,0.116-0.727,0.316-1.473,0.518c-1.201,0.326-1.536-0.601-2.458-0.646
			c-1.41-0.068-2.206,0.821-5.631,0.821h-8.001c-1.777,0-2.759,0.712-3.436,2.478l-1.075,2.612l-1.073-9.265l-0.271,0.79
			c-0.656,1.908-2.232,4.602-4.908,3.824c-1.159-0.336-2.057-0.439-3.395-0.439h-4.889c0.648,2.39,2.253,4.012,3.939,4.725
			c4.327,1.829,8.685-0.433,15.439,3.901c7.244,4.649,11.589,3.321,15.396,2.558c-0.698,0.749-0.729,1.8-0.544,2.548
			c0.479,1.92,3.373,4.519,7.33,5.244L76.292,55.841z"/>
		<path clip-path="url(#SVGID_4_)" fill="#0193D7" d="M91.675,75.989c2.471-0.862,3.642-2.735,3.854-5.178h-3.721
			c-1.111,0-1.854-0.579-3.096-0.579c-1.207,0-1.63,0.267-2.447,0.495c-2.402,0.665-2.572-1.169-3.19-3.113
			c-0.374-1.173-0.916-3.143-1.336-3.117c-0.418,0.026-0.777,1.29-0.931,3.003c-0.523,5.806-1.969,17.417-2.594,22.349
			c2.331,0.347,5.003,0.036,7.758-1.431C94.67,83.78,96.312,77.527,91.675,75.989"/>
	</g>
	<rect y="756" clip-path="url(#SVGID_2_)" fill="#EDEDEE" width="612" height="36"/>
</g>
<text transform="matrix(1 0 0 1 89.9624 771.8848)"><tspan x="0" y="0" fill="#414042" font-family="'VectoraLTStd-Bold'" font-size="10">NeuroNexus</tspan><tspan x="51.549" y="0" fill="#414042" font-family="'VectoraLTStd-Bold'" font-size="10"> </tspan><tspan x="53.299" y="0" fill="#414042" font-family="'VectoraLTStd-Bold'" font-size="10">T</tspan><tspan x="57.729" y="0" fill="#414042" font-family="'VectoraLTStd-Bold'" font-size="10">echnologie</tspan><tspan x="104.599" y="0" fill="#414042" font-family="'VectoraLTStd-Bold'" font-size="10">s,</tspan><tspan x="109.908" y="0" fill="#414042" font-family="'VectoraLTStd-Bold'" font-size="10"> In</tspan><tspan x="119.968" y="0" fill="#414042" font-family="'VectoraLTStd-Bold'" font-size="10">c</tspan><tspan x="124.208" y="0" fill="#414042" font-family="'VectoraLTStd-Bold'" font-size="10">.</tspan><tspan x="125.918" y="0" fill="#414042" font-family="'VectoraLTStd-Bold'" font-size="10"> ©2016</tspan></text>
<text transform="matrix(1 0 0 1 273.4404 771.8848)"><tspan x="0" y="0" fill="#414042" font-family="'VectoraLTStd-Light'" font-size="10">  |  655 </tspan><tspan x="28.379" y="0" fill="#414042" font-family="'VectoraLTStd-Light'" font-size="10">F</tspan><tspan x="32.879" y="0" fill="#414042" font-family="'VectoraLTStd-Light'" font-size="10">airﬁeld Court</tspan><tspan x="87.048" y="0" fill="#414042" font-family="'VectoraLTStd-Light'" font-size="10">,</tspan><tspan x="88.748" y="0" fill="#414042" font-family="'VectoraLTStd-Light'" font-size="10"> Suite 100</tspan><tspan x="129.478" y="0" fill="#414042" font-family="'VectoraLTStd-Light'" font-size="10">, </tspan><tspan x="132.947" y="0" fill="#414042" font-family="'VectoraLTStd-Light'" font-size="10">Ann</tspan><tspan x="150.167" y="0" fill="#414042" font-family="'VectoraLTStd-Light'" font-size="10"> </tspan><tspan x="151.927" y="0" fill="#414042" font-family="'VectoraLTStd-Light'" font-size="10">Arbo</tspan><tspan x="172.496" y="0" fill="#414042" font-family="'VectoraLTStd-Light'" font-size="10" letter-spacing="-1">r</tspan><tspan x="174.666" y="0" fill="#414042" font-family="'VectoraLTStd-Light'" font-size="10">,</tspan><tspan x="176.376" y="0" fill="#414042" font-family="'VectoraLTStd-Light'" font-size="10"> Michigan USA</tspan></text>
<text transform="matrix(1 0 0 1 130.6475 783.8848)"><tspan x="0" y="0" fill="#414042" font-family="'VectoraLTStd-Light'" font-size="10">T</tspan><tspan x="4.22" y="0" fill="#414042" font-family="'VectoraLTStd-Light'" font-size="10">elephone</tspan><tspan x="43.889" y="0" fill="#414042" font-family="'VectoraLTStd-Light'" font-size="10">:</tspan><tspan x="45.599" y="0" fill="#414042" font-family="'VectoraLTStd-Light'" font-size="10"> +1.734.913.8858  |  </tspan><tspan x="127.187" y="0" fill="#414042" font-family="'VectoraLTStd-Light'" font-size="10">F</tspan><tspan x="131.687" y="0" fill="#414042" font-family="'VectoraLTStd-Light'" font-size="10">ax</tspan><tspan x="141.136" y="0" fill="#414042" font-family="'VectoraLTStd-Light'" font-size="10">:</tspan><tspan x="142.836" y="0" fill="#414042" font-family="'VectoraLTStd-Light'" font-size="10"> +1.734.786.0069  |  support@neuronexu</tspan><tspan x="310.242" y="0" fill="#414042" font-family="'VectoraLTStd-Light'" font-size="10">s</tspan><tspan x="313.652" y="0" fill="#414042" font-family="'VectoraLTStd-Light'" font-size="10">.com</tspan></text>
<g>
	<defs>
		<rect id="SVGID_5_" width="612" height="792"/>
	</defs>
	<clipPath id="SVGID_6_">
		<use xlink:href="#SVGID_5_"  overflow="visible"/>
	</clipPath>
	<g clip-path="url(#SVGID_6_)">
		<text transform="matrix(1 0 0 1 488.917 59.1929)" fill="#396885" font-family="'VectoraLTStd-Roman'" font-size="18">SITE MAPS</text>
	</g>
	<g clip-path="url(#SVGID_6_)">
		<text transform="matrix(1 0 0 1 505.957 73.5928)"><tspan x="0" y="0" fill="#396885" font-family="'VectoraLTStd-Roman'" font-size="12">A16 </tspan><tspan x="22.199" y="0" fill="#396885" font-family="'VectoraLTStd-Roman'" font-size="12">P</tspan><tspan x="28.38" y="0" fill="#396885" font-family="'VectoraLTStd-Roman'" font-size="12">ackage</tspan></text>
	</g>
	<g clip-path="url(#SVGID_6_)">
		<text transform="matrix(1 0 0 1 420.3848 87.9932)"><tspan x="0" y="0" fill="#396885" font-family="'VectoraLTStd-Roman'" font-size="12">Updated November 22</tspan><tspan x="114.334" y="0" fill="#396885" font-family="'VectoraLTStd-Roman'" font-size="12">,</tspan><tspan x="116.374" y="0" fill="#396885" font-family="'VectoraLTStd-Roman'" font-size="12"> 2016</tspan></text>
	</g>
</g>
<g>
	<defs>
		<rect id="SVGID_7_" x="212.464" y="165.6" width="187.075" height="572.4"/>
	</defs>
	<clipPath id="SVGID_8_">
		<use xlink:href="#SVGID_7_"  overflow="visible"/>
	</clipPath>
	<polygon clip-path="url(#SVGID_8_)" fill="#424142" points="212.464,-2344.8 212.464,-2031.99 224.124,-2024.54 230.575,-2018.645 
		287.442,281.619 287.442,336.722 288.651,350.494 288.651,364.271 290.464,378.043 290.464,419.369 292.273,433.146 
		292.273,474.473 294.082,488.25 294.082,529.575 295.744,542.201 295.744,715.125 306.001,738 316.259,715.125 316.259,542.201 
		317.921,529.575 317.921,488.25 319.734,474.473 319.734,433.146 321.543,419.369 321.543,378.043 323.347,364.271 
		323.347,350.494 324.556,336.722 324.556,281.619 381.428,-2018.645 387.884,-2024.54 399.539,-2031.99 399.539,-2344.8 	"/>
	<polygon clip-path="url(#SVGID_8_)" fill="#396885" points="308.135,721.721 307.965,721.394 307.742,721.096 307.459,720.846 
		307.138,720.634 306.779,720.483 306.396,720.389 306.151,720.367 306.151,698.837 303.133,696.086 303.133,643.743 
		301.325,642.083 301.325,589.463 299.516,587.812 299.516,535.464 297.703,533.812 297.703,481.461 295.889,479.81 
		295.889,427.462 294.081,425.811 294.081,373.467 292.276,371.811 292.276,319.468 290.463,317.808 290.463,302.97 
		290.609,281.755 290.614,281.755 290.609,281.712 290.614,281.622 290.609,281.622 253.198,-2048.356 253.198,-2083.067 
		223.027,-2083.067 223.027,-2055.519 249.581,-2055.519 249.581,-2048.356 289.712,281.712 289.557,302.97 289.557,318.153 
		291.365,319.804 291.365,372.156 293.179,373.803 293.179,426.155 294.987,427.807 294.987,480.15 296.801,481.806 
		296.801,534.149 298.609,535.81 298.609,588.148 300.418,589.809 300.418,642.428 302.231,644.079 302.231,696.431 
		305.249,699.182 305.249,720.475 305.226,720.483 304.867,720.634 304.541,720.846 304.267,721.096 304.036,721.394 
		303.87,721.721 303.766,722.074 303.729,722.428 303.766,722.79 303.87,723.135 304.036,723.463 304.267,723.761 304.541,724.02 
		304.867,724.222 305.226,724.373 305.608,724.477 306,724.502 306.396,724.477 306.779,724.373 307.138,724.222 307.459,724.02 
		307.742,723.761 307.965,723.463 308.135,723.135 308.233,722.79 308.271,722.428 308.233,722.074 	"/>
	<polygon clip-path="url(#SVGID_8_)" fill="#396885" points="358.804,-2048.354 321.393,281.602 321.388,281.602 319.735,344.264 
		317.922,345.911 317.922,398.263 316.108,399.914 316.108,452.262 314.3,453.913 314.3,506.266 312.486,507.917 312.486,560.256 
		310.678,561.916 310.678,614.535 308.869,616.187 308.869,668.539 305.851,671.289 305.851,692.815 305.605,692.832 
		305.223,692.936 304.864,693.087 304.543,693.289 304.265,693.539 304.033,693.837 303.868,694.174 303.769,694.519 
		303.731,694.881 303.769,695.234 303.868,695.588 304.033,695.915 304.265,696.213 304.543,696.463 304.864,696.674 
		305.223,696.825 305.605,696.92 305.998,696.95 306.395,696.92 306.776,696.825 307.141,696.674 307.462,696.463 307.74,696.213 
		307.962,695.915 308.137,695.588 308.236,695.234 308.273,694.881 308.236,694.519 308.137,694.174 307.962,693.837 
		307.74,693.539 307.462,693.289 307.141,693.087 306.776,692.936 306.758,692.928 306.758,671.626 309.771,668.875 
		309.771,616.531 311.584,614.88 311.584,562.252 313.393,560.601 313.393,508.262 315.206,506.602 315.206,454.258 
		317.011,452.603 317.011,400.26 318.823,398.6 318.823,346.256 320.628,344.608 322.29,281.753 322.3,281.753 362.426,-2048.354 
		362.426,-2055.517 388.98,-2055.517 388.98,-2083.066 358.804,-2083.066 	"/>
	<polygon clip-path="url(#SVGID_8_)" fill="#396885" points="257.124,-2048.354 291.82,281.671 291.367,304.343 291.367,317.051 
		293.18,318.702 293.18,371.05 294.989,372.701 294.989,425.053 296.797,426.705 296.797,479.053 298.611,480.704 298.611,533.047 
		300.419,534.707 300.419,587.326 302.233,588.974 302.233,641.326 305.246,644.081 305.246,665.378 305.227,665.378 
		304.863,665.529 304.542,665.74 304.264,665.994 304.037,666.288 303.867,666.615 303.768,666.969 303.73,667.322 303.768,667.685 
		303.867,668.029 304.037,668.37 304.264,668.664 304.542,668.918 304.863,669.116 305.227,669.28 305.609,669.371 306.001,669.396 
		306.398,669.371 306.78,669.28 307.14,669.116 307.461,668.918 307.744,668.664 307.966,668.37 308.136,668.029 308.235,667.685 
		308.272,667.322 308.235,666.969 308.136,666.615 307.966,666.288 307.744,665.994 307.461,665.74 307.14,665.529 306.78,665.378 
		306.398,665.287 306.152,665.27 306.152,643.744 303.135,640.98 303.135,588.637 301.321,586.981 301.321,534.357 299.518,532.711 
		299.518,480.359 297.704,478.707 297.704,426.359 295.891,424.708 295.891,372.365 294.082,370.705 294.082,318.366 
		292.273,316.714 292.273,304.352 292.722,281.753 292.727,281.753 292.727,281.68 292.727,281.628 292.722,281.628 
		260.742,-2048.354 260.742,-2124.392 223.023,-2124.392 223.023,-2096.843 257.124,-2096.843 	"/>
	<polygon clip-path="url(#SVGID_8_)" fill="#396885" points="351.26,-2048.354 319.283,281.602 319.279,281.602 317.924,343.16 
		316.11,344.807 316.11,397.159 314.302,398.811 314.302,451.162 312.488,452.81 312.488,505.161 310.675,506.812 310.675,559.432 
		308.866,561.092 308.866,613.432 305.853,616.187 305.853,637.712 305.607,637.729 305.225,637.833 304.866,637.983 
		304.54,638.195 304.266,638.445 304.035,638.738 303.87,639.07 303.766,639.415 303.733,639.777 303.766,640.131 303.87,640.484 
		304.035,640.812 304.266,641.105 304.54,641.369 304.866,641.571 305.225,641.723 305.607,641.812 306,641.848 306.396,641.812 
		306.778,641.723 307.138,641.571 307.464,641.369 307.742,641.105 307.964,640.812 308.134,640.484 308.238,640.131 
		308.271,639.777 308.238,639.415 308.134,639.07 307.964,638.738 307.742,638.445 307.464,638.195 307.138,637.983 
		306.778,637.833 306.755,637.824 306.755,616.531 309.772,613.776 309.772,561.429 311.586,559.777 311.586,507.158 
		313.39,505.498 313.39,453.154 315.203,451.499 315.203,399.155 317.012,397.504 317.012,345.156 318.821,343.505 320.181,281.753 
		354.886,-2048.354 354.886,-2096.843 388.978,-2096.843 388.978,-2124.392 351.26,-2124.392 	"/>
	<polygon clip-path="url(#SVGID_8_)" fill="#396885" points="264.365,-2048.354 293.932,281.653 293.181,305.3 293.181,315.947 
		294.985,317.607 294.985,369.95 296.798,371.606 296.798,423.949 298.612,425.601 298.612,477.948 300.42,479.6 300.42,532.228 
		302.234,533.879 302.234,586.223 305.247,588.974 305.247,610.274 305.223,610.274 304.864,610.435 304.543,610.637 
		304.265,610.896 304.033,611.185 303.868,611.521 303.769,611.866 303.731,612.229 303.769,612.582 303.868,612.936 
		304.033,613.263 304.265,613.561 304.543,613.811 304.864,614.021 305.223,614.173 305.605,614.268 305.998,614.303 
		306.395,614.268 306.776,614.173 307.141,614.021 307.462,613.811 307.745,613.561 307.962,613.263 308.137,612.936 
		308.236,612.582 308.273,612.229 308.236,611.866 308.137,611.521 307.962,611.185 307.745,610.896 307.462,610.637 
		307.141,610.435 306.776,610.274 306.395,610.18 306.153,610.167 306.153,588.637 303.136,585.878 303.136,533.534 
		301.322,531.883 301.322,479.255 299.514,477.604 299.514,425.265 297.705,423.613 297.705,371.261 295.892,369.609 
		295.892,317.262 294.083,315.61 294.083,305.317 294.834,281.753 294.838,281.753 294.834,281.662 294.834,281.628 
		267.982,-2048.354 267.982,-2165.723 223.024,-2165.723 223.024,-2138.169 264.365,-2138.169 	"/>
	<polygon clip-path="url(#SVGID_8_)" fill="#396885" points="344.019,-2048.354 317.167,281.61 316.114,342.056 314.301,343.716 
		314.301,396.055 312.487,397.706 312.487,450.059 310.674,451.705 310.674,504.329 308.87,505.984 308.87,558.328 305.852,561.092 
		305.852,582.617 305.606,582.635 305.224,582.726 304.865,582.876 304.544,583.088 304.266,583.342 304.034,583.635 
		303.869,583.963 303.77,584.316 303.732,584.67 303.77,585.032 303.869,585.386 304.034,585.709 304.266,586.012 304.544,586.266 
		304.865,586.464 305.224,586.628 305.606,586.719 305.999,586.744 306.396,586.719 306.777,586.628 307.137,586.464 
		307.463,586.266 307.741,586.012 307.963,585.709 308.133,585.386 308.237,585.032 308.274,584.67 308.237,584.316 
		308.133,583.963 307.963,583.635 307.741,583.342 307.463,583.088 307.137,582.876 306.777,582.726 306.754,582.726 
		306.754,561.429 309.771,558.674 309.771,506.321 311.585,504.674 311.585,452.055 313.394,450.395 313.394,398.052 315.202,396.4 
		315.202,344.052 317.012,342.401 318.069,281.753 318.074,281.753 347.641,-2048.354 347.641,-2138.169 388.981,-2138.169 
		388.981,-2165.723 344.019,-2165.723 	"/>
	<polygon clip-path="url(#SVGID_8_)" fill="#396885" points="271.605,-2048.354 296.043,281.636 294.986,306.404 294.986,314.852 
		296.799,316.503 296.799,368.846 298.613,370.502 298.613,422.846 300.421,424.506 300.421,477.125 302.23,478.776 302.23,531.124 
		305.248,533.879 305.248,555.172 305.224,555.181 304.865,555.331 304.544,555.543 304.266,555.793 304.034,556.09 
		303.869,556.418 303.77,556.763 303.732,557.125 303.77,557.479 303.869,557.832 304.034,558.16 304.266,558.453 304.544,558.717 
		304.865,558.919 305.224,559.07 305.606,559.16 305.999,559.195 306.396,559.16 306.777,559.07 307.137,558.919 307.463,558.717 
		307.741,558.453 307.963,558.16 308.133,557.832 308.237,557.479 308.274,557.125 308.237,556.763 308.133,556.418 307.963,556.09 
		307.741,555.793 307.463,555.543 307.137,555.331 306.777,555.181 306.396,555.086 306.149,555.06 306.149,533.534 
		303.137,530.779 303.137,478.432 301.323,476.779 301.323,424.16 299.515,422.509 299.515,370.157 297.701,368.51 297.701,316.158 
		295.893,314.507 295.893,306.422 296.946,281.753 296.95,281.753 296.95,281.653 296.95,281.628 275.227,-2048.354 
		275.227,-2207.044 223.025,-2207.044 223.025,-2179.495 271.605,-2179.495 	"/>
	<polygon clip-path="url(#SVGID_8_)" fill="#396885" points="336.778,-2048.354 315.051,281.61 314.3,340.952 312.486,342.612 
		312.486,394.951 310.678,396.603 310.678,449.23 308.869,450.882 308.869,503.234 305.851,505.984 305.851,527.515 
		305.605,527.527 305.223,527.623 304.864,527.782 304.543,527.984 304.265,528.243 304.033,528.541 303.868,528.869 
		303.769,529.214 303.731,529.576 303.769,529.93 303.868,530.283 304.033,530.611 304.265,530.908 304.543,531.158 304.864,531.37 
		305.223,531.521 305.605,531.615 305.998,531.65 306.395,531.615 306.776,531.521 307.141,531.37 307.462,531.158 307.745,530.908 
		307.962,530.611 308.137,530.283 308.236,529.93 308.273,529.576 308.236,529.214 308.137,528.869 307.962,528.541 
		307.745,528.243 307.462,527.984 307.141,527.782 306.776,527.623 306.758,527.623 306.758,506.321 309.771,503.57 
		309.771,451.227 311.584,449.566 311.584,396.947 313.393,395.296 313.393,342.948 315.206,341.297 315.957,281.753 
		315.962,281.753 340.4,-2048.354 340.4,-2179.495 388.98,-2179.495 388.98,-2207.044 336.778,-2207.044 	"/>
	<polygon clip-path="url(#SVGID_8_)" fill="#396885" points="278.846,-2048.354 298.156,281.628 296.8,306.538 296.8,313.748 
		298.614,315.399 298.614,367.751 300.417,369.402 300.417,422.021 302.231,423.674 302.231,476.021 305.249,478.776 
		305.249,500.064 305.225,500.073 304.866,500.225 304.54,500.436 304.267,500.689 304.035,500.982 303.87,501.311 303.766,501.664 
		303.733,502.018 303.766,502.38 303.87,502.733 304.035,503.057 304.267,503.351 304.54,503.613 304.866,503.812 305.225,503.976 
		305.607,504.066 306,504.101 306.396,504.066 306.778,503.976 307.138,503.812 307.464,503.613 307.742,503.351 307.964,503.057 
		308.134,502.733 308.238,502.38 308.271,502.018 308.238,501.664 308.134,501.311 307.964,500.982 307.742,500.689 
		307.464,500.436 307.138,500.225 306.778,500.073 306.396,499.982 306.15,499.966 306.15,478.432 303.138,475.676 303.138,423.332 
		301.324,421.686 301.324,369.058 299.516,367.406 299.516,315.054 297.702,313.403 297.702,306.564 299.053,281.753 
		299.062,281.753 299.058,281.636 282.468,-2048.354 282.468,-2248.375 223.026,-2248.375 223.026,-2220.821 278.846,-2220.821 	"/>
	<polygon clip-path="url(#SVGID_8_)" fill="#396885" points="329.538,-2048.354 312.948,280.795 312.938,280.795 312.938,281.61 
		312.49,339.848 310.677,341.508 310.677,394.128 308.868,395.779 308.868,448.127 305.85,450.882 305.85,472.407 305.609,472.434 
		305.227,472.528 304.863,472.68 304.542,472.891 304.264,473.141 304.037,473.438 303.867,473.766 303.768,474.11 303.73,474.473 
		303.768,474.835 303.867,475.18 304.037,475.508 304.264,475.801 304.542,476.056 304.863,476.267 305.227,476.426 
		305.609,476.508 306.001,476.543 306.398,476.508 306.78,476.426 307.14,476.267 307.461,476.056 307.744,475.801 307.966,475.508 
		308.136,475.18 308.235,474.835 308.272,474.473 308.235,474.11 308.136,473.766 307.966,473.438 307.744,473.141 307.461,472.891 
		307.14,472.68 306.78,472.528 306.757,472.52 306.757,451.227 309.77,448.467 309.77,396.124 311.583,394.473 311.583,341.845 
		313.392,340.193 313.85,281.753 333.16,-2048.354 333.16,-2220.821 388.979,-2220.821 388.979,-2248.375 329.538,-2248.375 	"/>
	<polygon clip-path="url(#SVGID_8_)" fill="#396885" points="286.086,-2048.354 300.268,281.619 298.61,307.085 298.61,312.644 
		300.418,314.295 300.418,366.915 302.232,368.575 302.232,420.918 305.25,423.674 305.25,444.971 305.226,444.971 304.867,445.13 
		304.541,445.332 304.267,445.596 304.036,445.889 303.871,446.208 303.767,446.562 303.729,446.924 303.767,447.277 
		303.871,447.631 304.036,447.958 304.267,448.256 304.541,448.506 304.867,448.717 305.226,448.868 305.608,448.963 306,448.998 
		306.397,448.963 306.779,448.868 307.139,448.717 307.46,448.506 307.743,448.256 307.965,447.958 308.135,447.631 
		308.234,447.277 308.271,446.924 308.234,446.562 308.135,446.208 307.965,445.889 307.743,445.596 307.46,445.332 307.139,445.13 
		306.779,444.971 306.397,444.875 306.151,444.862 306.151,423.332 303.134,420.582 303.134,368.229 301.325,366.578 
		301.325,313.959 299.517,312.299 299.517,307.111 301.165,281.753 301.174,281.753 289.713,-2048.354 289.713,-2289.701 
		223.022,-2289.701 223.022,-2262.147 286.086,-2262.147 	"/>
	<polygon clip-path="url(#SVGID_8_)" fill="#396885" points="322.298,-2048.354 310.827,281.61 310.676,339.024 308.867,340.681 
		308.867,393.023 305.854,395.779 305.854,417.312 305.608,417.33 305.226,417.421 304.867,417.58 304.541,417.783 304.267,418.037 
		304.036,418.331 303.871,418.658 303.767,419.012 303.729,419.365 303.767,419.728 303.871,420.077 304.036,420.413 
		304.267,420.698 304.541,420.961 304.867,421.159 305.226,421.323 305.608,421.414 306,421.448 306.397,421.414 306.779,421.323 
		307.139,421.159 307.46,420.961 307.743,420.698 307.965,420.413 308.135,420.077 308.234,419.728 308.271,419.365 
		308.234,419.012 308.135,418.658 307.965,418.331 307.743,418.037 307.46,417.783 307.139,417.58 306.779,417.421 306.756,417.412 
		306.756,396.124 309.773,393.369 309.773,341.029 311.582,339.369 311.733,281.753 325.915,-2048.354 325.915,-2262.147 
		388.979,-2262.147 388.979,-2289.701 322.298,-2289.701 	"/>
	<polygon clip-path="url(#SVGID_8_)" fill="#396885" points="259.993,-2294.934 288.809,-2294.934 293.328,-2290.803 
		293.328,-2048.353 302.381,281.612 300.421,307.363 300.421,311.822 302.23,313.469 302.23,365.812 305.248,368.576 
		305.248,389.865 305.224,389.874 304.865,390.024 304.544,390.227 304.266,390.49 304.034,390.783 303.869,391.111 303.77,391.464 
		303.732,391.818 303.77,392.18 303.869,392.525 304.034,392.857 304.266,393.15 304.544,393.405 304.865,393.612 305.224,393.767 
		305.606,393.857 305.999,393.892 306.396,393.857 306.777,393.767 307.137,393.612 307.463,393.405 307.741,393.15 
		307.963,392.857 308.133,392.525 308.237,392.18 308.274,391.818 308.237,391.464 308.133,391.111 307.963,390.783 307.741,390.49 
		307.463,390.227 307.137,390.024 306.777,389.874 306.396,389.783 306.149,389.757 306.149,368.231 303.137,365.476 
		303.137,313.124 301.323,311.477 301.323,307.389 303.278,281.754 303.288,281.754 296.95,-2048.353 296.95,-2292.174 
		290.311,-2298.241 261.49,-2298.241 253.202,-2305.809 253.202,-2331.025 223.025,-2331.025 223.025,-2303.472 250.642,-2303.472 	
		"/>
	<polygon clip-path="url(#SVGID_8_)" fill="#396885" points="358.804,-2331.026 358.804,-2305.81 350.512,-2298.237 
		321.699,-2298.237 315.051,-2292.175 315.051,-2048.353 308.718,281.62 308.718,281.655 308.718,281.754 308.723,281.754 
		308.869,307.376 308.869,337.927 305.851,340.682 305.851,362.207 305.605,362.225 305.223,362.319 304.864,362.479 
		304.543,362.682 304.265,362.932 304.033,363.238 303.868,363.557 303.769,363.911 303.731,364.272 303.769,364.626 
		303.868,364.98 304.033,365.308 304.265,365.601 304.543,365.855 304.864,366.066 305.223,366.217 305.605,366.308 
		305.998,366.342 306.395,366.308 306.776,366.217 307.141,366.066 307.462,365.855 307.74,365.601 307.962,365.308 308.137,364.98 
		308.236,364.626 308.273,364.272 308.236,363.911 308.137,363.557 307.962,363.238 307.74,362.932 307.462,362.682 
		307.141,362.479 306.776,362.319 306.758,362.319 306.758,341.027 309.771,338.267 309.771,307.376 309.624,281.672 
		318.673,-2048.353 318.673,-2290.804 323.196,-2294.935 352.013,-2294.935 361.368,-2303.472 388.98,-2303.472 388.98,-2331.026 	
		"/>
	<polygon clip-path="url(#SVGID_8_)" fill="#396885" points="300.567,-2299.208 300.567,-2048.354 304.491,281.603 302.234,307.358 
		302.234,310.717 305.247,313.473 305.247,334.761 305.223,334.77 304.864,334.92 304.543,335.132 304.265,335.386 304.033,335.68 
		303.868,336.007 303.769,336.361 303.731,336.723 303.769,337.076 303.868,337.421 304.033,337.758 304.265,338.047 
		304.543,338.306 304.864,338.508 305.223,338.668 305.605,338.763 305.998,338.797 306.395,338.763 306.776,338.668 
		307.141,338.508 307.462,338.306 307.745,338.047 307.962,337.758 308.137,337.421 308.236,337.076 308.273,336.723 
		308.236,336.361 308.137,336.007 307.962,335.68 307.745,335.386 307.462,335.132 307.141,334.92 306.776,334.77 306.395,334.679 
		306.153,334.662 306.153,313.128 303.136,310.372 303.136,307.393 305.388,281.754 305.398,281.754 304.193,-2048.354 
		304.193,-2300.575 298.46,-2305.81 298.46,-2331.026 268.284,-2331.026 268.284,-2303.473 295.901,-2303.473 	"/>
	<polygon clip-path="url(#SVGID_8_)" fill="#396885" points="304.865,307.374 304.544,307.576 304.266,307.835 304.034,308.132 
		303.869,308.46 303.77,308.814 303.732,309.167 303.77,309.53 303.869,309.875 304.034,310.202 304.266,310.5 304.544,310.75 
		304.865,310.961 305.224,311.112 305.606,311.216 305.999,311.237 306.396,311.216 306.777,311.112 307.137,310.961 
		307.463,310.75 307.741,310.5 307.963,310.202 308.133,309.875 308.237,309.53 308.274,309.167 308.237,308.814 308.133,308.46 
		307.963,308.132 307.741,307.835 307.515,307.628 307.515,281.618 311.434,-2048.355 311.434,-2299.209 316.104,-2303.474 
		343.722,-2303.474 343.722,-2331.028 313.545,-2331.028 313.545,-2305.811 307.812,-2300.576 307.812,-2048.355 306.604,281.618 
		306.604,307.18 306.396,307.128 305.999,307.098 305.606,307.128 305.224,307.223 	"/>
	<polygon clip-path="url(#SVGID_8_)" fill="#EDEDEE" points="278.467,-2272.203 278.68,-2271.004 279.114,-2269.857 
		279.756,-2268.797 280.597,-2267.856 281.603,-2267.063 282.741,-2266.438 283.983,-2266.007 285.287,-2265.778 286.618,-2265.757 
		287.926,-2265.946 289.093,-2266.317 289.164,-2266.141 289.806,-2265.08 290.642,-2264.136 291.647,-2263.342 292.786,-2262.721 
		294.028,-2262.286 295.336,-2262.057 296.667,-2262.04 297.976,-2262.229 299.227,-2262.626 300.394,-2263.217 300.79,-2263.506 
		301.196,-2262.419 301.843,-2261.358 302.684,-2260.418 303.685,-2259.625 304.828,-2259 306.07,-2258.568 307.373,-2258.336 
		308.7,-2258.318 310.013,-2258.508 311.27,-2258.905 312.431,-2259.496 313.461,-2260.259 314.334,-2261.178 315.014,-2262.221 
		315.491,-2263.351 315.741,-2264.545 315.756,-2265.502 315.812,-2265.494 315.723,-2267.801 314.981,-2270.931 313.654,-2273.898 
		311.793,-2276.605 309.441,-2278.981 306.67,-2280.943 303.562,-2282.44 300.224,-2283.423 296.752,-2283.858 296.682,-2283.854 
		296.682,-2282.617 299.926,-2282.207 303.038,-2281.293 305.923,-2279.9 308.507,-2278.067 310.707,-2275.855 312.445,-2273.329 
		313.678,-2270.564 314.372,-2267.646 314.447,-2265.748 314.381,-2265.761 314.4,-2265.666 314.381,-2264.67 314.179,-2263.691 
		313.786,-2262.765 313.229,-2261.906 312.512,-2261.151 311.666,-2260.526 310.712,-2260.043 309.678,-2259.716 308.605,-2259.561 
		307.51,-2259.573 306.443,-2259.763 305.423,-2260.117 304.488,-2260.63 303.661,-2261.285 302.972,-2262.057 302.443,-2262.928 
		302.089,-2263.868 301.98,-2264.502 301.933,-2264.515 301.952,-2264.537 300.578,-2264.95 300.559,-2264.95 300.549,-2264.95 
		300.474,-2264.873 299.624,-2264.243 298.674,-2263.76 297.645,-2263.437 296.568,-2263.282 295.478,-2263.295 294.405,-2263.484 
		293.381,-2263.838 292.446,-2264.351 291.624,-2265.002 290.939,-2265.778 290.401,-2266.649 290.349,-2266.8 290.212,-2266.869 
		290.217,-2266.869 289.961,-2266.999 288.658,-2267.667 288.687,-2267.512 288.625,-2267.481 287.596,-2267.154 286.519,-2266.999 
		285.428,-2267.016 284.356,-2267.206 283.336,-2267.56 282.401,-2268.072 281.575,-2268.724 280.89,-2269.495 280.356,-2270.366 
		279.997,-2271.307 279.827,-2272.294 279.846,-2273.29 280.054,-2274.269 280.441,-2275.196 281.003,-2276.054 281.556,-2276.636 
		281.556,-2276.632 282.004,-2277.153 284.427,-2279.158 287.194,-2280.745 290.221,-2281.871 293.418,-2282.505 296.682,-2282.617 
		296.682,-2283.854 293.249,-2283.738 289.82,-2283.065 286.576,-2281.854 283.605,-2280.15 281.003,-2278.003 280.573,-2277.494 
		280.531,-2277.442 280.526,-2277.442 280.555,-2277.477 279.898,-2276.782 279.213,-2275.739 278.746,-2274.609 278.491,-2273.415 
			"/>
	<polygon clip-path="url(#SVGID_8_)" fill="#EDEDEE" points="268.059,-2260.632 271.865,-2258.398 271.865,-2248.895 
		277.834,-2247.575 280.733,-2240.96 282.089,-2241.374 278.831,-2248.648 273.305,-2249.886 273.305,-2259.062 270.051,-2260.882 
		274.032,-2265.84 274.032,-2268.104 274.061,-2268.79 274.826,-2272.037 276.2,-2275.107 278.131,-2277.923 280.568,-2280.385 
		283.444,-2282.42 286.655,-2283.973 290.122,-2284.99 290.599,-2285.05 291.959,-2286.473 290.599,-2286.301 289.815,-2286.206 
		286.131,-2285.119 282.708,-2283.468 279.647,-2281.294 277.045,-2278.673 274.986,-2275.676 273.522,-2272.399 272.706,-2268.945 
		272.677,-2268.143 272.677,-2266.254 272.672,-2266.25 272.677,-2266.254 272.677,-2268.143 272.597,-2266.181 272.587,-2266.168 	
		"/>
	<polygon clip-path="url(#SVGID_8_)" fill="#EDEDEE" points="314.674,-2240.963 317.573,-2240.963 317.573,-2250.88 
		321.918,-2240.963 324.813,-2240.963 324.813,-2257.49 321.918,-2257.49 321.918,-2247.573 317.573,-2257.49 314.674,-2257.49 	"/>
	<polygon clip-path="url(#SVGID_8_)" fill="#EDEDEE" points="326.623,-2240.963 336.758,-2240.963 336.758,-2243.605 
		330.245,-2243.605 336.758,-2252.199 336.758,-2256.167 335.317,-2257.49 328.073,-2257.49 326.623,-2256.167 326.623,-2253.523 
		329.519,-2253.523 329.519,-2254.847 333.145,-2254.847 333.867,-2254.183 333.867,-2252.863 326.623,-2243.605 	"/>
	<polygon clip-path="url(#SVGID_8_)" fill="#EDEDEE" points="338.572,-2254.846 342.194,-2254.846 342.194,-2240.961 
		345.09,-2240.961 345.09,-2254.846 348.712,-2254.846 348.712,-2257.489 338.572,-2257.489 	"/>
	<polygon clip-path="url(#SVGID_8_)" fill="#EDEDEE" points="289.499,-2082.214 296.257,-2082.214 296.257,-2085.297 
		306.396,-2085.297 294.566,-2052.901 301.324,-2052.901 313.153,-2083.753 313.153,-2091.468 289.499,-2091.468 	"/>
	<polygon clip-path="url(#SVGID_8_)" fill="#EDEDEE" points="316.201,-2082.214 322.963,-2082.214 322.963,-2085.297 
		333.098,-2085.297 321.268,-2052.901 328.03,-2052.901 339.855,-2083.753 339.855,-2091.468 316.201,-2091.468 	"/>
	<polygon clip-path="url(#SVGID_8_)" fill="#EDEDEE" points="274.621,-2052.9 291.518,-2052.9 291.518,-2059.07 286.451,-2059.07 
		286.451,-2091.471 278.002,-2091.471 274.621,-2088.384 274.621,-2085.3 279.688,-2085.3 279.688,-2059.07 274.621,-2059.07 	"/>
	<polygon clip-path="url(#SVGID_8_)" fill="#EDEDEE" points="306.055,-2150.412 313.885,-2150.412 313.885,-2172.899 
		319.755,-2167.54 325.629,-2172.899 325.629,-2150.412 333.459,-2150.412 333.459,-2183.623 327.584,-2183.623 319.755,-2176.474 
		311.925,-2183.623 306.055,-2183.623 	"/>
	<polygon clip-path="url(#SVGID_8_)" fill="#EDEDEE" points="273.763,-2150.412 281.593,-2150.412 281.593,-2172.899 
		287.458,-2167.54 293.338,-2172.899 293.338,-2150.412 301.163,-2150.412 301.163,-2183.623 295.293,-2183.623 287.458,-2176.474 
		279.633,-2183.623 273.763,-2183.623 	"/>
	<polygon clip-path="url(#SVGID_8_)" fill="#EDEDEE" points="277.628,-2188.52 297.203,-2188.52 297.203,-2195.669 
		291.323,-2195.669 291.323,-2233.196 281.538,-2233.196 277.628,-2229.622 277.628,-2226.047 283.498,-2226.047 283.498,-2195.669 
		277.628,-2195.669 	"/>
	<polygon clip-path="url(#SVGID_8_)" fill="#EDEDEE" points="302.089,-2192.095 306.004,-2188.52 325.578,-2188.52 
		329.493,-2192.095 329.493,-2229.622 325.578,-2233.196 321.663,-2233.196 321.663,-2197.454 319.703,-2195.669 311.879,-2195.669 
		309.919,-2197.454 309.919,-2224.262 311.879,-2226.047 319.703,-2226.047 321.663,-2224.262 321.663,-2233.196 306.004,-2233.196 
		302.089,-2229.622 	"/>
	<polygon clip-path="url(#SVGID_8_)" fill="#EDEDEE" points="321.712,-2104.618 325.626,-2101.044 345.201,-2101.044 
		349.116,-2104.618 349.116,-2142.15 345.201,-2145.725 341.286,-2145.725 341.286,-2109.982 339.321,-2108.193 331.496,-2108.193 
		329.536,-2109.982 329.536,-2136.786 331.496,-2138.575 339.321,-2138.575 341.286,-2136.786 341.286,-2145.725 325.626,-2145.725 
		321.712,-2142.15 	"/>
	<polygon clip-path="url(#SVGID_8_)" fill="#EDEDEE" points="264.955,-2101.046 284.529,-2101.046 284.529,-2108.195 
		278.65,-2108.195 278.65,-2145.723 268.865,-2145.723 264.955,-2142.148 264.955,-2138.573 270.825,-2138.573 270.825,-2108.195 
		264.955,-2108.195 	"/>
	<polygon clip-path="url(#SVGID_8_)" fill="#EDEDEE" points="289.416,-2104.618 293.331,-2101.044 312.905,-2101.044 
		316.82,-2104.618 316.82,-2142.15 312.905,-2145.725 308.99,-2145.725 308.99,-2109.982 307.03,-2108.193 299.205,-2108.193 
		297.246,-2109.982 297.246,-2136.786 299.205,-2138.575 307.03,-2138.575 308.99,-2136.786 308.99,-2145.725 293.331,-2145.725 
		289.416,-2142.15 	"/>
	<polygon clip-path="url(#SVGID_8_)" fill="#EDEDEE" points="308.23,722.074 308.127,721.721 307.962,721.393 307.735,721.108 
		307.456,720.845 307.135,720.643 306.771,720.491 306.394,720.388 305.997,720.366 305.61,720.388 305.232,720.491 
		304.869,720.643 304.547,720.845 304.264,721.108 304.042,721.393 303.872,721.721 303.773,722.074 303.74,722.428 
		303.773,722.794 303.872,723.139 304.042,723.463 304.264,723.76 304.547,724.01 304.869,724.226 305.232,724.363 305.61,724.463 
		305.997,724.493 306.394,724.463 306.771,724.363 307.135,724.226 307.456,724.01 307.735,723.76 307.962,723.463 308.127,723.139 
		308.23,722.794 308.264,722.428 	"/>
	<polygon clip-path="url(#SVGID_8_)" fill="#EDEDEE" points="308.23,694.517 308.127,694.172 307.962,693.844 307.735,693.551 
		307.456,693.296 307.135,693.089 306.771,692.934 306.394,692.844 305.997,692.809 305.61,692.844 305.232,692.934 
		304.869,693.089 304.547,693.296 304.264,693.551 304.042,693.844 303.872,694.172 303.773,694.517 303.74,694.883 
		303.773,695.236 303.872,695.586 304.042,695.918 304.264,696.202 304.547,696.466 304.869,696.668 305.232,696.819 
		305.61,696.909 305.997,696.939 306.394,696.909 306.771,696.819 307.135,696.668 307.456,696.466 307.735,696.202 
		307.962,695.918 308.127,695.586 308.23,695.236 308.264,694.883 	"/>
	<polygon clip-path="url(#SVGID_8_)" fill="#EDEDEE" points="308.23,666.971 308.127,666.617 307.962,666.294 307.735,666 
		307.456,665.746 307.135,665.539 306.771,665.388 306.394,665.293 305.997,665.259 305.61,665.293 305.232,665.388 
		304.869,665.539 304.547,665.746 304.264,666 304.042,666.294 303.872,666.617 303.773,666.971 303.74,667.324 303.773,667.687 
		303.872,668.031 304.042,668.359 304.264,668.656 304.547,668.906 304.869,669.118 305.232,669.269 305.61,669.359 
		305.997,669.394 306.394,669.359 306.771,669.269 307.135,669.118 307.456,668.906 307.735,668.656 307.962,668.359 
		308.127,668.031 308.23,667.687 308.264,667.324 	"/>
	<polygon clip-path="url(#SVGID_8_)" fill="#EDEDEE" points="308.23,639.413 308.127,639.068 307.962,638.741 307.735,638.447 
		307.456,638.193 307.135,637.99 306.771,637.84 306.394,637.736 305.997,637.715 305.61,637.736 305.232,637.84 304.869,637.99 
		304.547,638.193 304.264,638.447 304.042,638.741 303.872,639.068 303.773,639.413 303.74,639.78 303.773,640.138 303.872,640.482 
		304.042,640.811 304.264,641.104 304.547,641.362 304.869,641.569 305.232,641.725 305.61,641.815 305.997,641.837 
		306.394,641.815 306.771,641.725 307.135,641.569 307.456,641.362 307.735,641.104 307.962,640.811 308.127,640.482 
		308.23,640.138 308.264,639.78 	"/>
	<polygon clip-path="url(#SVGID_8_)" fill="#EDEDEE" points="308.23,611.867 308.127,611.522 307.962,611.19 307.735,610.897 
		307.456,610.643 307.135,610.436 306.771,610.285 306.394,610.189 305.997,610.155 305.61,610.189 305.232,610.285 
		304.869,610.436 304.547,610.643 304.264,610.897 304.042,611.19 303.872,611.522 303.773,611.867 303.74,612.229 303.773,612.583 
		303.872,612.933 304.042,613.265 304.264,613.553 304.547,613.812 304.869,614.015 305.232,614.165 305.61,614.256 
		305.997,614.291 306.394,614.256 306.771,614.165 307.135,614.015 307.456,613.812 307.735,613.553 307.962,613.265 
		308.127,612.933 308.23,612.583 308.264,612.229 	"/>
	<polygon clip-path="url(#SVGID_8_)" fill="#EDEDEE" points="308.23,584.317 308.127,583.973 307.962,583.645 307.735,583.352 
		307.456,583.089 307.135,582.886 306.771,582.735 306.394,582.64 305.997,582.61 305.61,582.64 305.232,582.735 304.869,582.886 
		304.547,583.089 304.264,583.352 304.042,583.645 303.872,583.973 303.773,584.317 303.74,584.671 303.773,585.037 
		303.872,585.383 304.042,585.706 304.264,586.004 304.547,586.254 304.869,586.469 305.232,586.62 305.61,586.706 305.997,586.741 
		306.394,586.706 306.771,586.62 307.135,586.469 307.456,586.254 307.735,586.004 307.962,585.706 308.127,585.383 308.23,585.037 
		308.264,584.671 	"/>
	<polygon clip-path="url(#SVGID_8_)" fill="#EDEDEE" points="308.23,556.76 308.127,556.415 307.962,556.096 307.735,555.794 
		307.456,555.54 307.135,555.341 306.771,555.178 306.394,555.087 305.997,555.053 305.61,555.087 305.232,555.178 304.869,555.341 
		304.547,555.54 304.264,555.794 304.042,556.096 303.872,556.415 303.773,556.76 303.74,557.126 303.773,557.48 303.872,557.829 
		304.042,558.161 304.264,558.454 304.547,558.709 304.869,558.916 305.232,559.066 305.61,559.153 305.997,559.184 
		306.394,559.153 306.771,559.066 307.135,558.916 307.456,558.709 307.735,558.454 307.962,558.161 308.127,557.829 308.23,557.48 
		308.264,557.126 	"/>
	<polygon clip-path="url(#SVGID_8_)" fill="#EDEDEE" points="308.23,529.215 308.127,528.869 307.962,528.537 307.735,528.244 
		307.456,527.994 307.135,527.783 306.771,527.632 306.394,527.537 305.997,527.503 305.61,527.537 305.232,527.632 
		304.869,527.783 304.547,527.994 304.264,528.244 304.042,528.537 303.872,528.869 303.773,529.215 303.74,529.577 
		303.773,529.931 303.872,530.284 304.042,530.603 304.264,530.904 304.547,531.159 304.869,531.362 305.232,531.513 
		305.61,531.604 305.997,531.638 306.394,531.604 306.771,531.513 307.135,531.362 307.456,531.159 307.735,530.904 
		307.962,530.603 308.127,530.284 308.23,529.931 308.264,529.577 	"/>
	<polygon clip-path="url(#SVGID_8_)" fill="#EDEDEE" points="308.23,501.665 308.127,501.319 307.962,500.992 307.735,500.699 
		307.456,500.44 307.135,500.233 306.771,500.082 306.394,499.991 305.997,499.957 305.61,499.991 305.232,500.082 304.869,500.233 
		304.547,500.44 304.264,500.699 304.042,500.992 303.872,501.319 303.773,501.665 303.74,502.022 303.773,502.385 303.872,502.729 
		304.042,503.053 304.264,503.351 304.547,503.605 304.869,503.816 305.232,503.968 305.61,504.058 305.997,504.088 
		306.394,504.058 306.771,503.968 307.135,503.816 307.456,503.605 307.735,503.351 307.962,503.053 308.127,502.729 
		308.23,502.385 308.264,502.022 	"/>
	<polygon clip-path="url(#SVGID_8_)" fill="#EDEDEE" points="308.23,474.11 308.127,473.766 307.962,473.434 307.735,473.141 
		307.456,472.886 307.135,472.688 306.771,472.528 306.394,472.434 305.997,472.407 305.61,472.434 305.232,472.528 
		304.869,472.688 304.547,472.886 304.264,473.141 304.042,473.434 303.872,473.766 303.773,474.11 303.74,474.473 303.773,474.831 
		303.872,475.176 304.042,475.508 304.264,475.801 304.547,476.056 304.869,476.258 305.232,476.418 305.61,476.508 
		305.997,476.534 306.394,476.508 306.771,476.418 307.135,476.258 307.456,476.056 307.735,475.801 307.962,475.508 
		308.127,475.176 308.23,474.831 308.264,474.473 	"/>
	<polygon clip-path="url(#SVGID_8_)" fill="#EDEDEE" points="308.23,446.561 308.127,446.216 307.962,445.889 307.735,445.595 
		307.456,445.341 307.135,445.129 306.771,444.979 306.394,444.884 305.997,444.854 305.61,444.884 305.232,444.979 
		304.869,445.129 304.547,445.341 304.264,445.595 304.042,445.889 303.872,446.216 303.773,446.561 303.74,446.928 
		303.773,447.281 303.872,447.626 304.042,447.949 304.264,448.251 304.547,448.506 304.869,448.713 305.232,448.863 
		305.61,448.954 305.997,448.984 306.394,448.954 306.771,448.863 307.135,448.713 307.456,448.506 307.735,448.251 
		307.962,447.949 308.127,447.626 308.23,447.281 308.264,446.928 	"/>
	<polygon clip-path="url(#SVGID_8_)" fill="#EDEDEE" points="308.23,419.016 308.127,418.662 307.962,418.339 307.735,418.036 
		307.456,417.786 307.135,417.584 306.771,417.433 306.394,417.338 305.997,417.304 305.61,417.338 305.232,417.433 
		304.869,417.584 304.547,417.786 304.264,418.036 304.042,418.339 303.872,418.662 303.773,419.016 303.74,419.369 
		303.773,419.731 303.872,420.076 304.042,420.404 304.264,420.701 304.547,420.951 304.869,421.163 305.232,421.313 
		305.61,421.404 305.997,421.438 306.394,421.404 306.771,421.313 307.135,421.163 307.456,420.951 307.735,420.701 
		307.962,420.404 308.127,420.076 308.23,419.731 308.264,419.369 	"/>
	<polygon clip-path="url(#SVGID_8_)" fill="#EDEDEE" points="308.23,391.466 308.127,391.112 307.962,390.784 307.735,390.487 
		307.456,390.237 307.135,390.025 306.771,389.875 306.394,389.788 305.997,389.758 305.61,389.788 305.232,389.875 
		304.869,390.025 304.547,390.237 304.264,390.487 304.042,390.784 303.872,391.112 303.773,391.466 303.74,391.819 
		303.773,392.186 303.872,392.531 304.042,392.846 304.264,393.152 304.547,393.402 304.869,393.604 305.232,393.768 
		305.61,393.854 305.997,393.889 306.394,393.854 306.771,393.768 307.135,393.604 307.456,393.402 307.735,393.152 
		307.962,392.846 308.127,392.531 308.23,392.186 308.264,391.819 	"/>
	<polygon clip-path="url(#SVGID_8_)" fill="#EDEDEE" points="308.23,363.908 308.127,363.562 307.962,363.235 307.735,362.942 
		307.456,362.688 307.135,362.48 306.771,362.325 306.394,362.235 305.997,362.2 305.61,362.235 305.232,362.325 304.869,362.48 
		304.547,362.688 304.264,362.942 304.042,363.235 303.872,363.562 303.773,363.908 303.74,364.274 303.773,364.628 
		303.872,364.973 304.042,365.3 304.264,365.594 304.547,365.857 304.869,366.06 305.232,366.21 305.61,366.301 305.997,366.331 
		306.394,366.301 306.771,366.21 307.135,366.06 307.456,365.857 307.735,365.594 307.962,365.3 308.127,364.973 308.23,364.628 
		308.264,364.274 	"/>
	<polygon clip-path="url(#SVGID_8_)" fill="#EDEDEE" points="308.23,336.362 308.127,336.008 307.962,335.681 307.735,335.392 
		307.456,335.133 307.135,334.93 306.771,334.779 306.394,334.685 305.997,334.65 305.61,334.685 305.232,334.779 304.869,334.93 
		304.547,335.133 304.264,335.392 304.042,335.681 303.872,336.008 303.773,336.362 303.74,336.724 303.773,337.078 
		303.872,337.422 304.042,337.75 304.264,338.048 304.547,338.298 304.869,338.509 305.232,338.66 305.61,338.75 305.997,338.785 
		306.394,338.75 306.771,338.66 307.135,338.509 307.456,338.298 307.735,338.048 307.962,337.75 308.127,337.422 308.23,337.078 
		308.264,336.724 	"/>
	<polygon clip-path="url(#SVGID_8_)" fill="#EDEDEE" points="308.23,308.812 308.127,308.459 307.962,308.131 307.735,307.838 
		307.456,307.588 307.135,307.372 306.771,307.23 306.394,307.126 305.997,307.105 305.61,307.126 305.232,307.23 304.869,307.372 
		304.547,307.588 304.264,307.838 304.042,308.131 303.872,308.459 303.773,308.812 303.74,309.17 303.773,309.528 303.872,309.877 
		304.042,310.201 304.264,310.499 304.547,310.753 304.869,310.956 305.232,311.106 305.61,311.206 305.997,311.231 
		306.394,311.206 306.771,311.106 307.135,310.956 307.456,310.753 307.735,310.499 307.962,310.201 308.127,309.877 
		308.23,309.528 308.264,309.17 	"/>
	<rect x="358.806" y="-2331.027" clip-path="url(#SVGID_8_)" fill="#EDEDEE" width="30.176" height="27.554"/>
	<rect x="268.286" y="-2331.027" clip-path="url(#SVGID_8_)" fill="#EDEDEE" width="30.176" height="27.554"/>
	<rect x="223.026" y="-2331.027" clip-path="url(#SVGID_8_)" fill="#EDEDEE" width="30.176" height="27.554"/>
	<rect x="313.546" y="-2331.027" clip-path="url(#SVGID_8_)" fill="#EDEDEE" width="30.176" height="27.554"/>
	<rect x="358.806" y="-2124.392" clip-path="url(#SVGID_8_)" fill="#EDEDEE" width="30.176" height="27.549"/>
	<rect x="223.026" y="-2207.044" clip-path="url(#SVGID_8_)" fill="#EDEDEE" width="30.176" height="27.549"/>
	<rect x="358.806" y="-2207.044" clip-path="url(#SVGID_8_)" fill="#EDEDEE" width="30.176" height="27.549"/>
	<rect x="223.026" y="-2083.065" clip-path="url(#SVGID_8_)" fill="#EDEDEE" width="30.176" height="27.549"/>
	<rect x="223.026" y="-2289.701" clip-path="url(#SVGID_8_)" fill="#EDEDEE" width="30.176" height="27.554"/>
	<rect x="358.806" y="-2248.375" clip-path="url(#SVGID_8_)" fill="#EDEDEE" width="30.176" height="27.554"/>
	<rect x="358.806" y="-2289.701" clip-path="url(#SVGID_8_)" fill="#EDEDEE" width="30.176" height="27.554"/>
	<rect x="223.026" y="-2248.375" clip-path="url(#SVGID_8_)" fill="#EDEDEE" width="30.176" height="27.554"/>
	<rect x="358.806" y="-2083.065" clip-path="url(#SVGID_8_)" fill="#EDEDEE" width="30.176" height="27.549"/>
	<rect x="223.026" y="-2165.723" clip-path="url(#SVGID_8_)" fill="#EDEDEE" width="30.176" height="27.554"/>
	<rect x="223.026" y="-2124.392" clip-path="url(#SVGID_8_)" fill="#EDEDEE" width="30.176" height="27.549"/>
	<rect x="358.806" y="-2165.723" clip-path="url(#SVGID_8_)" fill="#EDEDEE" width="30.176" height="27.554"/>
	<path clip-path="url(#SVGID_8_)" fill="#EDEDEE" d="M303.776-2265.576c-0.736,0.138-3.376,0.629-3.376,0.629
		s-1.006,1.501-1.671,2.506c-1.03-1.897-5.54-10.207-5.54-10.207s-4.364,6.947-4.789,7.624h-8.392v1.509h9.35
		c0,0,2.687-4.286,3.717-5.929c1.058,1.94,5.501,10.125,5.501,10.125s2.545-3.808,2.857-4.278c0.572-0.107,3.679-0.689,3.679-0.689
		s1.294-4.493,2.205-7.671c0.841,4.989,3.697,21.956,3.697,21.956s2.904-12.457,3.15-13.514h7.48v-1.509h-8.817
		c0,0-0.878,3.747-1.554,6.653c-0.901-5.347-3.541-21.021-3.541-21.021S304.018-2266.408,303.776-2265.576"/>
</g>
<text transform="matrix(1 0 0 1 271.896 312.9238)" fill="#396885" font-family="'VectoraLTStd-Bold'" font-size="12">9</text>
<text transform="matrix(1 0 0 1 271.896 340.5239)" fill="#396885" font-family="'VectoraLTStd-Bold'" font-size="12">8</text>
<text transform="matrix(1 0 0 1 265.0923 368.124)"><tspan x="0" y="0" fill="#396885" font-family="'VectoraLTStd-Bold'" font-size="12">1</tspan><tspan x="5.868" y="0" fill="#396885" font-family="'VectoraLTStd-Bold'" font-size="12">0</tspan></text>
<text transform="matrix(1 0 0 1 271.896 395.7241)" fill="#396885" font-family="'VectoraLTStd-Bold'" font-size="12">7</text>
<text transform="matrix(1 0 0 1 265.0923 423.3242)"><tspan x="0" y="0" fill="#396885" font-family="'VectoraLTStd-Bold'" font-size="12">1</tspan><tspan x="5.868" y="0" fill="#396885" font-family="'VectoraLTStd-Bold'" font-size="12">3</tspan></text>
<text transform="matrix(1 0 0 1 271.896 450.9238)" fill="#396885" font-family="'VectoraLTStd-Bold'" font-size="12">4</text>
<text transform="matrix(1 0 0 1 265.0923 478.5234)"><tspan x="0" y="0" fill="#396885" font-family="'VectoraLTStd-Bold'" font-size="12">1</tspan><tspan x="5.868" y="0" fill="#396885" font-family="'VectoraLTStd-Bold'" font-size="12">2</tspan></text>
<text transform="matrix(1 0 0 1 271.896 506.124)" fill="#396885" font-family="'VectoraLTStd-Bold'" font-size="12">5</text>
<text transform="matrix(1 0 0 1 265.0923 533.7236)"><tspan x="0" y="0" fill="#396885" font-family="'VectoraLTStd-Bold'" font-size="12">1</tspan><tspan x="5.868" y="0" fill="#396885" font-family="'VectoraLTStd-Bold'" font-size="12">5</tspan></text>
<text transform="matrix(1 0 0 1 271.896 561.3242)" fill="#396885" font-family="'VectoraLTStd-Bold'" font-size="12">2</text>
<text transform="matrix(1 0 0 1 265.0923 588.9238)"><tspan x="0" y="0" fill="#396885" font-family="'VectoraLTStd-Bold'" font-size="12">1</tspan><tspan x="5.868" y="0" fill="#396885" font-family="'VectoraLTStd-Bold'" font-size="12">6</tspan></text>
<text transform="matrix(1 0 0 1 271.896 616.5234)" fill="#396885" font-family="'VectoraLTStd-Bold'" font-size="12">1</text>
<text transform="matrix(1 0 0 1 265.0923 644.124)"><tspan x="0" y="0" fill="#396885" font-family="'VectoraLTStd-Bold'" font-size="12">1</tspan><tspan x="5.868" y="0" fill="#396885" font-family="'VectoraLTStd-Bold'" font-size="12">4</tspan></text>
<text transform="matrix(1 0 0 1 271.896 671.7236)" fill="#396885" font-family="'VectoraLTStd-Bold'" font-size="12">3</text>
<text transform="matrix(1 0 0 1 265.0923 699.3242)"><tspan x="0" y="0" fill="#396885" font-family="'VectoraLTStd-Bold'" font-size="12">1</tspan><tspan x="5.868" y="0" fill="#396885" font-family="'VectoraLTStd-Bold'" font-size="12">1</tspan></text>
<text transform="matrix(1 0 0 1 271.896 726.9238)" fill="#396885" font-family="'VectoraLTStd-Bold'" font-size="12">6</text>
<text transform="matrix(1 0 0 1 36 174.9238)" fill="#0193D7" font-family="'VectoraLTStd-Bold'" font-size="12">A1x16</text>
<text transform="matrix(1 0 0 1 558.2285 174.9238)"><tspan x="0" y="0" fill="#124C69" font-family="'VectoraLTStd-Bold'" font-size="12">p</tspan><tspan x="6.396" y="0" fill="#124C69" font-family="'VectoraLTStd-Bold'" font-size="12">.2</tspan></text>
</svg>
